<?xml version="1.0" standalone="no"?><!DOCTYPE svg PUBLIC "-//W3C//DTD SVG 1.1//EN" "http://www.w3.org/Graphics/SVG/1.1/DTD/svg11.dtd"><svg t="1744019903306" class="icon" viewBox="0 0 1024 1024" version="1.1" xmlns="http://www.w3.org/2000/svg" p-id="1185" xmlns:xlink="http://www.w3.org/1999/xlink" width="200" height="200"><path d="M673.57866667 558.11093333l-34.54933334-31.08266666-16.18453333-14.51413334a64.93973333 64.93973333 0 0 0-87.08266667 0l-112.6432 101.4688c-10.27626667 9.248-25.9456 9.248-36.34986666 0l-5.52213334-4.88106666-28.38613333-25.55946667-8.09173333 39.04533333 20.5504 18.368 14.12906666 12.58666667 16.18346667 14.64213333a64.93973333 64.93973333 0 0 0 87.08266667 0l108.66133333-97.872 3.98293333-3.5968c10.2752-9.248 25.81653333-9.248 36.21973334 0l5.78026666 5.13813334 34.80746667 31.33866666 1.6704-44.8256z" fill="#bfbfbf" p-id="1186"></path><path d="M280.1632 375.21066667c9.376-0.38613333 17.08266667-7.70773333 17.98186667-17.08373334 11.04533333-108.66133333 102.88106667-193.5616 214.49706666-193.5616 117.52426667 0 212.95573333 93.8912 215.52533334 210.77333334 25.43146667 0 50.99093333 4.752 75.13813333 13.87093333 0-2.95466667 0.128-6.03733333 0.128-8.99093333 0-160.68053333-130.24-290.91946667-290.91946667-290.91946667s-290.92053333 130.24-290.92053333 290.91946667v5.78026666c19.26613333-6.42133333 38.78933333-9.89013333 58.31253333-10.78933333z" fill="#bfbfbf" p-id="1187"></path><path d="M740.75413333 881.52533333h2.56853334c2.05546667 0 3.98186667-0.256 5.90933333-0.384 155.15733333-11.56053333 276.40533333-144.75413333 268.69866667-304.53546666-7.5776-155.92746667-138.9728-278.84586667-295.15733334-276.40533334h-2.05546666a355.5264 355.5264 0 0 0-228.8832 88.624l-0.51413334 0.51413334c-1.66933333 1.54133333-3.46666667 3.08266667-5.13706666 4.624L342.07146667 523.55946667a65.12 65.12 0 0 0 0 96.8448l2.5696 2.31253333 34.42133333 31.08266667-7.5776-6.80746667a32.496 32.496 0 0 1-1.0272-47.3952l5.13706667-4.624 66.40426666-59.5968v0.51413333l84.00106667-75.5232c48.93653333-49.96373333 116.368-81.8176 191.12106667-84.38613333 90.67946667-4.36693333 177.8912 49.3216 211.92853333 138.8448C971.30666667 626.18453333 915.30666667 750.64533333 804.07573333 793.0304c-5.6512 2.18346667-11.3024 3.9808-16.9536 5.6512-1.7984 0.51413333-3.5968 1.0272-5.3952 1.41226667l-0.77013333 0.25706666-4.88106667 1.15626667-1.0272 0.256c-1.54133333 0.38613333-3.08266667 0.6432-4.624 1.02826667l-1.0272 0.256c-1.54133333 0.25813333-3.08266667 0.6432-4.624 0.90026666h-1.02826666c-1.54133333 0.51413333-3.21066667 0.77013333-4.752 0.8992h-0.8992a37.19466667 37.19466667 0 0 1-5.26613334 0.77013334h-0.38506666c-5.78026667 0.7712-11.55946667 1.15626667-17.21173334 1.41333333h-12.58666666c-34.29333333-0.7712-67.68853333-9.76213333-97.48693334-25.81653333-8.992-4.88106667-19.90826667-3.7248-27.48693333 3.08266666l-44.5696 40.0736c43.02933333 32.23893333 95.17546667 52.78933333 151.94666667 57.15626667 0.7712 0 1.54133333 0 2.31253333 0.128 0.89813333 0 1.79733333 0 2.69653333 0.128 1.15626667 0 2.18346667 0 3.33973334 0.12906667h23.12c1.41226667 0 2.95466667 0 4.36693333-0.128z" fill="#bfbfbf" p-id="1188"></path><path d="M676.14826667 560.4224l-2.56853334-2.31146667-26.8448-24.1472a32.56 32.56 0 0 1 0 48.4224l-24.01813333 21.57866667-47.3952 42.64213333v-0.38506666l-84.12906667 75.5232c-48.93653333 49.96373333-116.368 81.8176-191.12106666 84.38613333-90.67946667 4.36693333-177.8912-49.32266667-211.92853334-138.84586667-42.25706667-111.35786667 13.74293333-235.81866667 124.97386667-278.20373333a216.1344 216.1344 0 0 1 66.78933333-13.872c9.376-0.38506667 17.21173333-7.5776 18.10986667-16.9536 2.05546667-20.16533333 6.80746667-39.43253333 14.00106667-57.5424-7.4496-0.51413333-14.8992-0.8992-22.47786667-0.8992-160.55146667 0-290.66346667 129.984-290.91946667 290.4064-0.25706667 160.55146667 130.24 291.3056 290.91946667 291.3056h10.78933333-4.10986666c1.9264 0 3.8528 0 5.7792-0.25706667h-1.66933334c86.05546667-2.56853333 164.40533333-35.4496 224.77226667-88.496l0.51413333-0.38506666c2.0544-1.7984 4.23893333-3.7248 6.29333334-5.65226667l143.98293333-129.5968a64.97813333 64.97813333 0 0 0 0-96.7168z" fill="#bfbfbf" p-id="1189"></path></svg>