<?xml version="1.0" standalone="no"?><!DOCTYPE svg PUBLIC "-//W3C//DTD SVG 1.1//EN" "http://www.w3.org/Graphics/SVG/1.1/DTD/svg11.dtd"><svg t="1744018529446" class="icon" viewBox="0 0 1024 1024" version="1.1" xmlns="http://www.w3.org/2000/svg" p-id="2553" xmlns:xlink="http://www.w3.org/1999/xlink" width="200" height="200"><path d="M449.84375 558.875c4.3125-0.28125 308.90625-25.125 329.15625-21.9375 20.25 3.28125 101.34375 0.84375 105.375 32.4375 4.03125 31.21875 0 61.59375 0 61.59375s-180 31.59375-184.03125 35.71875c-4.03125 4.03125-18.65625 18.65625-17.8125 40.5 0.84375 21.9375 0.84375 107.0625 1.59375 109.5 0.84375 2.4375 4.875 18.65625 35.71875 15.375 24.28125-2.53125 48.46875-11.15625 57.75-14.625 2.34375-0.9375 3.84375-3.1875 3.5625-5.71875l-1.6875-21.9375c-0.28125-3.375-3.46875-5.8125-6.75-5.15625l-46.40625 9.28125v-87.5625l150.375-27.1875c3.1875-0.5625 6.1875 1.78125 6.28125 5.0625l4.96875 148.3125s8.53125 36.84375-54.65625 49.875-214.78125 51.09375-229.40625 51.84375c-14.625 0.84375-38.90625 0.84375-64.03125-5.71875-17.71875-4.59375-39.5625-12.84375-50.8125-17.25-3.84375-1.5-5.15625-6.28125-2.71875-9.5625l55.3125-75.1875c2.0625-2.71875 3.09375-6.09375 3.09375-9.46875V734.1875c0-4.3125-1.6875-8.34375-4.59375-11.4375L421.71875 598.25c-3.1875-3.375-4.59375-7.96875-3.9375-12.5625 1.40625-9.84375 7.6875-25.40625 32.0625-26.8125z" fill="#bfbfbf" p-id="2554"></path><path d="M369.6875 609.78125c-2.0625-2.15625-4.78125-3.46875-7.6875-3.9375l-212.71875-31.21875c-3-0.5625-6.09375-0.28125-8.8125 1.03125-9.28125 4.3125-29.53125 17.0625-36.09375 48.65625v249.9375s3 49.875 71.71875 72.9375c68.71875 23.0625 152.625 43.78125 152.625 43.78125s46.78125 9.09375 65.71875-29.15625c18.84375-38.34375 108.84375-147.75 108.84375-147.75v-66.28125L369.6875 609.78125zM314.1875 907.71875c-21.9375-0.5625-111.09375-12.84375-139.21875-38.34375-25.5-23.0625-12.75-204.9375-12.75-204.9375s0.46875-21.09375 12.75-18.84375l141.65625 25.5s17.625 10.3125 17.625 24.9375v196.40625c0 0.09375 1.875 15.9375-20.0625 15.28125zM919.625 326.375c0-97.03125-74.90625-175.78125-167.34375-175.78125-52.6875 0-99.75 25.59375-130.40625 65.625C597.3125 110.375 509.46875 32 404.84375 32 281.28125 32 181.0625 141.3125 181.0625 276.125s100.21875 244.125 223.78125 244.125c6.46875 0 12.9375-0.375 19.3125-1.03125L758.5625 501.96875c1.5-0.09375 2.90625-0.09375 4.40625-0.1875l4.6875-0.28125-0.09375-0.09375c85.21875-8.15625 152.0625-83.4375 152.0625-175.03125z m-472.03125 86.90625c-62.53125 0-113.25-58.3125-113.25-130.3125s50.71875-130.3125 113.25-130.3125 113.25 58.3125 113.25 130.3125-50.71875 130.3125-113.25 130.3125z m331.21875-6c-41.25 0-74.71875-38.4375-74.71875-85.96875s33.46875-85.96875 74.71875-85.96875 74.71875 38.4375 74.71875 85.96875-33.46875 85.96875-74.71875 85.96875z" fill="#bfbfbf" p-id="2555"></path></svg>