<?xml version="1.0" standalone="no"?><!DOCTYPE svg PUBLIC "-//W3C//DTD SVG 1.1//EN" "http://www.w3.org/Graphics/SVG/1.1/DTD/svg11.dtd"><svg t="1744018524176" class="icon" viewBox="0 0 1024 1024" version="1.1" xmlns="http://www.w3.org/2000/svg" p-id="2234" xmlns:xlink="http://www.w3.org/1999/xlink" width="200" height="200"><path d="M691.6445408 455.55170133L577.16304747 455.55170133 577.16304747 341.07020693c0-32.33320107-26.45423893-58.78744-58.78744-58.78744l0 0c-32.33320107 0-58.78744 26.45423893-58.78744 58.78744l0 114.4814944L345.10667307 455.55170133c-32.33320107 0-58.78744 26.45423893-58.78744 58.78744l0 0c0 32.33320107 26.45423893 58.78744 58.78744 58.78744l114.4814944 0 0 114.4814944c0 32.33320107 26.45423893 58.78744 58.78744 58.78744l0 0c32.33320107 0 58.78744-26.45423893 58.78744-58.78744L577.16304747 573.12658133l114.4814944 0c32.33320107 0 58.78744-26.45423893 58.78744-58.78744l0 0C750.43198187 482.00594027 723.97774293 455.55170133 691.6445408 455.55170133z" fill="#bfbfbf" p-id="2235"></path><path d="M511.75658987 47.88615893c-255.6060608 0-464.11384107 208.50341333-464.11384107 464.1105664 0 101.16377813 32.68576427 194.9368288 87.99996693 271.33823467 13.8929504 21.88510827 34.392912 45.6978528 62.9450656 70.657792 82.64930347 75.7694112 192.669728 122.12108907 313.16880854 122.12108907 110.04116373 0 211.3304672-38.6695136 291.03701546-103.0815904 0.96818453-0.77716693 1.9352768-1.55324267 2.8980032-2.33914134 0.50755947-0.415872 1.01839467-0.82737707 1.52049707-1.24324906 24.26027093-19.90617067 46.71952213-42.60337493 66.8614624-68.0053824 63.64364267-79.46204587 101.79577173-180.1346368 101.79577173-289.44666027C975.86933867 256.3950304 767.36592533 47.88615893 511.75658987 47.88615893zM850.1429376 780.19463787c-71.23957547 39.49689067-150.62194027 60.86461547-200.96969707 70.850992-96.99305493 19.36259093-213.72309333-13.40613013-256.72487573-33.6976096-72.60616747-34.25756267-95.12872747-68.8829696-132.55171733-104.25498134l-21.40811094-20.47485653c-50.7330656-47.90601173-104.6653952-42.1667648-121.46180693-5.09524587-24.01140267-53.6845536-37.39351893-113.093072-37.39351893-175.5262112 0.0010912-98.79953173 33.48694507-190.02386773 89.65253866-262.95640106 73.49903573-42.79548373 157.38503893-65.53853227 209.67462187-75.9396896 97.17643093-19.3571328 213.90428693 13.40613013 256.72487573 33.6987008 72.78954347 34.25647147 95.1276352 68.8818784 132.73509334 104.441632l21.40811093 20.29147946c50.2211392 47.5141536 101.46176427 41.40597013 116.48990293 4.55166614 24.11837227 53.78606507 37.56052267 113.3266592 37.56052267 175.91152C943.8777856 613.177968 908.7710144 706.41617067 850.1429376 780.19463787z" fill="#bfbfbf" p-id="2236"></path></svg>