<?xml version="1.0" standalone="no"?><!DOCTYPE svg PUBLIC "-//W3C//DTD SVG 1.1//EN" "http://www.w3.org/Graphics/SVG/1.1/DTD/svg11.dtd"><svg t="1744019646214" class="icon" viewBox="0 0 1289 1024" version="1.1" xmlns="http://www.w3.org/2000/svg" p-id="1204" xmlns:xlink="http://www.w3.org/1999/xlink" width="251.7578125" height="200"><path d="M154.588835 875.44974a62.345689 62.345689 0 0 0-46.151233 20.584162 62.227048 62.227048 0 0 0-108.437602 41.524245v79.607911h32.329591v-79.370629a30.016098 30.016098 0 1 1 59.972875 0v79.607911H124.572737v-79.607911a30.016098 30.016098 0 1 1 59.972875 0v79.607911h32.329591v-79.607911a62.405009 62.405009 0 0 0-62.286368-62.345689zM566.390711 875.44974a62.345689 62.345689 0 0 0-46.151233 20.584162 62.227048 62.227048 0 0 0-108.437601 41.524245v79.607911h32.27027v-79.370629a30.016098 30.016098 0 0 1 60.032196 0v79.607911h32.329591v-79.607911a30.016098 30.016098 0 1 1 59.972875 0v79.607911H628.79572v-79.607911a62.405009 62.405009 0 0 0-62.405009-62.345689zM314.39786 874.322653A74.625002 74.625002 0 1 0 388.963541 949.125616 74.684322 74.684322 0 0 0 314.39786 874.322653z m0 120.123711a45.55803 45.55803 0 1 1 45.498709-45.320748 45.61735 45.61735 0 0 1-45.498709 45.320748zM899.593123 874.678575a76.285971 76.285971 0 0 0-76.226651 76.167331v66.854035h32.329591v-66.854035a43.89706 43.89706 0 0 1 87.794119 0v66.854035h32.270271v-66.854035a76.226651 76.226651 0 0 0-76.16733-76.167331zM986.912679 908.135253h54.515403v109.564688h32.329591v-109.564688h54.456082v-32.329591h-141.301076v32.329591zM1289.031227 946.4562a74.684322 74.684322 0 1 0-29.007652 61.989767v9.431935h29.066972v-71.184421z m-74.565681 48.405406a45.498709 45.498709 0 1 1 45.558029-45.498709 45.55803 45.55803 0 0 1-45.558029 45.498709zM726.081096 874.322653a74.625002 74.625002 0 1 0 52.913753 127.182833 72.430149 72.430149 0 0 0 10.381062-13.228439v-5.932035h-32.744834a44.964826 44.964826 0 0 1-30.549981 11.86407 45.55803 45.55803 0 0 1-43.125895-31.202504h116.327208A76.345292 76.345292 0 0 0 800.824738 949.125616a74.684322 74.684322 0 0 0-74.743642-74.802963z m-43.89706 63.413455a45.439389 45.439389 0 0 1 88.090721 0z" fill="#bfbfbf" p-id="1205"></path><path d="M932.634558 0h-224.468208l225.951217 746.190695h224.468208L932.634558 0zM579.73779 0H355.210262L129.259045 746.190695h224.527528l113.717113-375.497822 113.657793 375.497822h224.527528L579.73779 0z" fill="#bfbfbf" p-id="1206"></path></svg>