<?xml version="1.0" standalone="no"?><!DOCTYPE svg PUBLIC "-//W3C//DTD SVG 1.1//EN" "http://www.w3.org/Graphics/SVG/1.1/DTD/svg11.dtd"><svg t="1748312728801" class="icon" viewBox="0 0 1025 1024" version="1.1" xmlns="http://www.w3.org/2000/svg" p-id="4037" xmlns:xlink="http://www.w3.org/1999/xlink" width="200.1953125" height="200"><path d="M316.48 192L139.328 850.624H0L177.152 192h139.328z m64.448 3.904l418.944 246.464a43.904 43.904 0 0 1 0 75.328l-418.944 246.4-36.096-134.4L599.168 480 344.832 330.368l36.096-134.4zM936.512 531.2c48.832 0 88.512 40.448 88.512 90.24 0 49.664-39.68 90.112-88.512 90.112-48.768 0-88.448-40.448-88.448-90.176S887.68 531.2 936.512 531.2z m-2.304-282.56c48.768 0 88.448 40.448 88.448 90.176s-39.68 90.176-88.448 90.176c-48.768 0-88.448-40.448-88.448-90.176s39.68-90.176 88.448-90.176z" fill="#bfbfbf" p-id="4038"></path></svg>