<?xml version="1.0" standalone="no"?><!DOCTYPE svg PUBLIC "-//W3C//DTD SVG 1.1//EN" "http://www.w3.org/Graphics/SVG/1.1/DTD/svg11.dtd"><svg t="1744018540818" class="icon" viewBox="0 0 1166 1024" version="1.1" xmlns="http://www.w3.org/2000/svg" p-id="3205" xmlns:xlink="http://www.w3.org/1999/xlink" width="227.734375" height="200"><path d="M425.51358662 234.88609696c-14.70218847-62.99729798-35.37432181-123.1308257-62.01076273-180.3949458 33.48581217-16.3539299 69.19273646-24.80994289 107.10949948-25.36803896-20.3113431 15.24337262-34.40469849 34.97407041-42.28006494 59.19209092 2.48043079 49.77209313 1.53335671 98.63093726-2.81867181 146.57089384z" fill="#bfbfbf" p-id="3206"></path><path d="M363.50282389 54.49115116c26.63644092 57.26412132 47.30857426 117.39764903 62.01076273 180.3949458-4.80865302 19.84344398-16.08333661 34.87823493-33.82405196 45.09873676a1995.84458949 1995.84458949 0 0 0-53.55474974-191.6696306c-5.91357179-9.05920876-14.36958478-12.81367882-25.36803897-11.27468359 14.58944106-11.79331971 31.50146704-19.30789714 50.73607794-22.54936837z" fill="#bfbfbf" p-id="3207"></path><path d="M312.76674595 77.04051953c10.9984542-1.53899403 19.45446719 2.21547603 25.36803897 11.27468359a1995.84458949 1995.84458949 0 0 1 53.55474974 191.6696306c-5.2427283 4.59443405-10.88007069 9.29033967-16.91202598 14.09335538 16.26373173 10.62075202 28.47421477 24.71410741 36.64272376 42.28006617a1530.03101389 1530.03101389 0 0 1 22.54936718 135.29620904c7.11432602 27.47640491 21.2076814 50.02577328 42.28006615 67.64810513-9.94990853 5.41748611-21.22459333 7.30035845-33.82405196 5.6373424a56024.27199549 56024.27199549 0 0 0-135.29621026-431.25666853c-5.1299809-9.85971158-12.64455831-16.43848955-22.54936837-19.73069779 7.89227839-7.83590529 17.28409085-13.47324769 28.18671077-16.91202599z" fill="#bfbfbf" p-id="3208"></path><path d="M284.58003518 93.95254552c9.90481006 3.29220825 17.41938749 9.87098621 22.54936837 19.73069779a56024.27199549 56024.27199549 0 0 1 135.29621026 431.25666853c-14.43159518 1.70247722-27.583515-0.18039513-39.46139557-5.6373424a16410.9059832 16410.9059832 0 0 1-132.47753845-405.88862956c-4.0025129-8.30380442-10.57565355-12.06391179-19.73069658-11.27468359l33.82405197-28.18671077z" fill="#bfbfbf" p-id="3209"></path><path d="M245.11864082 127.77659748c-2.55371583 5.40057418-6.3138232 10.10211711-11.2746848 14.09335539a46112.42092377 46112.42092377 0 0 1 124.02152669 386.157933c-40.83126909-20.19859692-74.65532106-48.38530647-101.47215832-84.56013111 4.93831115 0.7328539 8.69841852-1.14437993 11.2746848-5.6373424a3173.3500526 3173.3500526 0 0 0-56.37342155-200.12564359 315.81517809 315.81517809 0 0 1-28.18670956-47.91740735c15.15317567-26.42785925 35.82530901-47.0999926 62.01076274-62.01076394z" fill="#bfbfbf" p-id="3210"></path><path d="M853.95158457 155.96330825c31.79460957-7.38491809 63.73578919-5.50204575 95.8348159 5.6373424a1064.54440346 1064.54440346 0 0 1 59.19209214 67.64810513c19.33044637 22.19985275 40.94401529 40.99475107 64.82943333 56.37342033a331.63919724 331.63919724 0 0 1 22.54936837 101.4721571 72.89083343 72.89083343 0 0 1-2.81867059 28.18671077l-118.38418427-118.38418429c-2.24929989 1.28531388-3.18509814 3.16818622-2.8186706 5.6373424-17.30100277-49.63679649-40.79180671-96.61276828-70.46677572-140.93355144-15.32793347-5.32165063-31.29852268-7.19888566-47.91740856-5.6373424z" fill="#bfbfbf" p-id="3211"></path><path d="M949.78640047 161.60065065c62.13478476 20.79615537 103.47905146 62.13478476 124.02152547 124.02152546-23.88541804-15.37866926-45.49898817-34.17356758-64.82943333-56.37342033a1064.54440346 1064.54440346 0 0 0-59.19209214-67.64810513z" fill="#bfbfbf" p-id="3212"></path><path d="M853.95158457 155.96330825c16.61888466-1.56154326 32.58947508 0.31569055 47.91740856 5.6373424 29.67496901 44.32078317 53.16577295 91.29675495 70.46677572 140.93355144a527.14785755 527.14785755 0 0 1 16.91202598 157.84557865 32.28505793 32.28505793 0 0 1-5.63734239 16.91202597 3944.77521761 3944.77521761 0 0 1-242.40570855-259.31773573c29.46638734-35.40250836 67.05054667-56.07464172 112.74684068-62.01076273z" fill="#bfbfbf" p-id="3213"></path><path d="M183.10787808 189.78736142a315.81517809 315.81517809 0 0 0 28.18670956 47.91740735 3173.3500526 3173.3500526 0 0 1 56.37342155 200.12564359c-2.57626507 4.49296126-6.33637243 6.37019629-11.2746848 5.6373424-6.82118349-2.43533232-12.45852589-6.19543847-16.91202597-11.2746848-18.08459366-74.9597382-42.51683438-146.36794948-73.28544753-214.21899898 3.43877829-10.90261994 9.07612069-20.29443118 16.91202719-28.18670956z" fill="#bfbfbf" p-id="3214"></path><path d="M250.75598321 122.13925629c9.15504302-0.7892282 15.72818489 2.97087917 19.73069658 11.27468359 42.44918545 136.02906416 86.61212396 271.32527442 132.47753845 405.88862956-16.01005158-0.338241-31.05047984-4.09270986-45.09873553-11.27468357a46112.42092377 46112.42092377 0 0 0-124.02152669-386.157933c4.9608616-3.99123828 8.72096775-8.69278121 11.2746848-14.09335539 0-3.76010737 1.87723503-5.6373424 5.63734239-5.63734119z" fill="#bfbfbf" p-id="3215"></path><path d="M166.19585089 217.97407098c30.76861315 67.85104949 55.20085387 139.25926078 73.28544753 214.21899898-19.66304885-8.00502579-38.45794717-6.12779076-56.37342034 5.6373424a1604.03804069 1604.03804069 0 0 0-39.46139435-146.57089385c-1.39242397-6.83809541-5.15253012-10.59820278-11.2746848-11.27468479 7.00157861-23.42315622 18.2762634-44.09528957 33.82405196-62.01076274z" fill="#bfbfbf" p-id="3216"></path><path d="M741.20474389 217.97407098a3944.77521761 3944.77521761 0 0 0 242.40570855 259.31773573 543.45105044 543.45105044 0 0 1-28.18670957 118.38418429 374.96780785 374.96780785 0 0 0-42.28006616-33.82405318 6233.29369566 6233.29369566 0 0 0-214.21899897-231.13102495 104.02023561 104.02023561 0 0 1-2.81867059-33.82405318c3.46696484-33.28286781 18.501757-59.58670624 45.09873674-78.92278871z" fill="#bfbfbf" p-id="3217"></path><path d="M132.37179893 279.98483372c6.12215345 0.6764808 9.88226082 4.43658817 11.2746848 11.27468479a1604.03804069 1604.03804069 0 0 1 39.46139435 146.57089385l-33.82405316 16.91202598a271.77626161 271.77626161 0 0 0-19.73069658-101.4721571c-4.0025129-8.30380442-10.57565355-12.06391179-19.73069778-11.27468479 3.12308773-22.54936837 10.63766395-43.21586442 22.54936837-62.01076273z" fill="#bfbfbf" p-id="3218"></path><path d="M109.82243056 341.99559645c9.15504302-0.7892282 15.72818489 2.97087917 19.73069778 11.27468479a271.77626161 271.77626161 0 0 1 19.73069658 101.4721571c-20.40717858 10.06265595-36.37776899 25.09744689-47.91740735 45.09873675-5.28782677-53.36308-2.46915618-105.9820315 8.45601299-157.84557864z" fill="#bfbfbf" p-id="3219"></path><path d="M696.10600715 296.89685969a104.02023561 104.02023561 0 0 0 2.81867059 33.82405318 6233.29369566 6233.29369566 0 0 1 214.21899897 231.13102495 374.96780785 374.96780785 0 0 1 42.28006616 33.82405318 230.42635761 230.42635761 0 0 1-39.46139556 73.28544632c-29.53967237-21.04419821-56.79058367-45.47080161-81.74145931-73.28544632a4727.84149375 4727.84149375 0 0 1-132.47753967-146.57089506 2538.94612551 2538.94612551 0 0 1-16.91202598-95.8348147c2.26057452-19.86599322 6.01504458-38.66089153 11.2746848-56.37342155z" fill="#bfbfbf" p-id="3220"></path><path d="M1096.35729431 387.09433321c7.15942449 55.58419334 7.15942449 111.95197637 0 169.12026222-3.47823946 0.62574501-6.29691126 2.50298004-8.45601299 5.63734239a839.04508238 839.04508238 0 0 0-98.65348649-101.47215708 527.14785755 527.14785755 0 0 0-16.91202598-157.84557865c-0.36642755-2.46915618 0.56937191-4.35202852 2.8186706-5.6373424l118.38418427 118.38418429c2.78484673-9.21141733 3.7206462-18.60322858 2.81867059-28.18671077z" fill="#bfbfbf" p-id="3221"></path><path d="M701.74334833 449.10509594a4727.84149375 4727.84149375 0 0 0 132.47753967 146.57089506c24.95087563 27.81464591 52.20178815 52.24124931 81.74145931 73.28544632-32.25123408 51.04613239-73.59550077 92.38476178-124.02152548 124.02152546a1477.34441469 1477.34441469 0 0 0-124.02152547-143.75222204c-6.07141766-2.64955131-11.70876006-1.70811453-16.91202597 2.81867059 39.77144881-61.36810579 56.68347479-129.01621092 50.73607794-202.94431539z" fill="#bfbfbf" p-id="3222"></path><path d="M476.24966577 539.30256944c3.06107733 0.338241 4.93831115 2.21547603 5.63734239 5.6373424-13.94114682 7.31163307-27.09870395 7.31163307-39.46139435 0 12.59945984 1.66301605 23.87414342-0.21985629 33.82405196-5.6373424z" fill="#bfbfbf" p-id="3223"></path><path d="M989.24779483 460.37978074a839.04508238 839.04508238 0 0 1 98.65348649 101.47215708c2.15910173-3.13436236 4.97777354-5.01159739 8.45601299-5.63734239-7.30599575 46.26002861-22.34078671 89.48153034-45.09873674 129.65886786-32.20613561-30.3458125-64.15295252-60.4097583-95.8348147-90.19747229a543.45105044 543.45105044 0 0 0 28.18670957-118.38418429 32.28505793 32.28505793 0 0 0 5.63734239-16.91202597z" fill="#bfbfbf" p-id="3224"></path><path d="M126.73445653 590.0386486c-4.72409217 1.92797082-6.60696451 5.68244087-5.63734118 11.27468359-7.3905554-19.55030267-13.0278978-40.2167987-16.91202719-62.01076275 1.95052005-6.74226115 4.76919186-6.74226115 8.45601299 0a792.92598772 792.92598772 0 0 0 14.09335538 50.73607916z" fill="#bfbfbf" p-id="3225"></path><path d="M791.94082183 792.98296278a203.84628978 203.84628978 0 0 1-39.46139435 22.54936837c-14.78111081 12.08646102-31.69313678 19.60103845-50.73607915 22.54936837a2852.62474991 2852.62474991 0 0 0-101.4721571-115.56551247c-7.44129119-1.09928144-14.95586862-0.15784588-22.54936837 2.8186706 26.30947574-22.54936837 50.73607916-46.97597179 73.28544753-73.28544632 5.20326713-4.52678512 10.84060831-5.4682219 16.91202597-2.81867059a1477.34441469 1477.34441469 0 0 1 124.02152547 143.75222204z" fill="#bfbfbf" p-id="3226"></path><path d="M357.86548271 900.09246227c-88.63029172-45.40878999-154.40116182-113.05689513-197.306973-202.94431419-0.60319577-10.59256547 2.21547603-12.4698005 8.45601299-5.63734239a9481.02283993 9481.02283993 0 0 1 188.85096001 208.58165658z" fill="#bfbfbf" p-id="3227"></path><path d="M955.42374287 595.675991c31.68186217 29.78771521 63.62868031 59.851661 95.8348147 90.19747229-24.95651294 55.43762208-59.71636436 104.2908289-104.29082891 146.57089384a555.70663318 555.70663318 0 0 1-115.56551248 78.92278992 79331.10177337 79331.10177337 0 0 1-78.9227887-95.8348159 203.84628978 203.84628978 0 0 0 39.46139435-22.54936837c50.42602469-31.63676368 91.77029139-72.97539308 124.02152548-124.02152546a230.42635761 230.42635761 0 0 0 39.46139556-73.28544632z" fill="#bfbfbf" p-id="3228"></path><path d="M701.74334833 838.08169952v5.6373424a873.16791418 873.16791418 0 0 1-78.92278872 16.91202599c-17.01349876 1.15001723-33.92552475 3.02725226-50.73607794 5.6373424a574.69883855 574.69883855 0 0 0-78.92278992-87.37880292 104.02023561 104.02023561 0 0 0-33.82405196-2.8186706 1574.2672362 1574.2672362 0 0 0 118.38418307-50.73607914c7.59349977-2.97651647 15.10807719-3.91795325 22.54936837-2.8186706a2852.62474991 2852.62474991 0 0 1 101.4721571 115.56551247z" fill="#bfbfbf" p-id="3229"></path><path d="M262.03066679 742.24688484c61.88110339 30.52057031 127.64633619 41.7952539 197.306973 33.82405195a104.02023561 104.02023561 0 0 1 33.82405196 2.8186706 574.69883855 574.69883855 0 0 1 78.92278992 87.37880292h-73.28544752c-38.31137712-3.9405025-75.89553645-13.33795104-112.74684188-28.18671079-53.65058401-20.74541838-100.62655579-51.75079973-140.93355145-93.01614409a27.81464591 27.81464591 0 0 1 16.91202597-2.81867059z" fill="#bfbfbf" p-id="3230"></path><path d="M126.73445653 590.0386486c29.49457389 65.16767434 74.59331065 115.90375348 135.29621026 152.20823624a27.81464591 27.81464591 0 0 0-16.91202597 2.81867059c40.30699566 41.26534436 87.28296743 72.27072573 140.93355145 93.01614409-1.23457809 6.62387644 0.64265694 12.26121884 5.63734239 16.91202599a2212.23960212 2212.23960212 0 0 1 78.92278871 81.74146052 27.81464591 27.81464591 0 0 1-16.91202597 2.81867059c-34.58509361-7.74007103-66.52627444-20.89762694-95.83481469-39.46139435a9481.02283993 9481.02283993 0 0 0-188.85096001-208.58165658c-6.24053817-6.8324581-9.05920876-4.95522429-8.45601299 5.63734239-17.63360646-29.69188094-30.79116239-61.63869787-39.46139436-95.83481589-0.96962333-5.59224391 0.91324901-9.34671277 5.63734118-11.27468359z" fill="#bfbfbf" p-id="3231"></path><path d="M752.47942748 815.53233115c26.1741791 31.83407073 52.48365485 63.78088767 78.9227887 95.8348159a183.81681338 183.81681338 0 0 1-56.37342032 22.54936839 27.81464591 27.81464591 0 0 0-2.81867059-16.9120272 1279.37223551 1279.37223551 0 0 1-70.46677694-73.28544632v-5.6373424c19.04294115-2.94832993 35.95496835-10.46290736 50.73607915-22.54936837z" fill="#bfbfbf" p-id="3232"></path><path d="M701.74334833 843.71904192a1279.37223551 1279.37223551 0 0 0 70.46677694 73.28544632c2.72283633 5.34419987 3.65863458 10.98154226 2.81867059 16.9120272a396.67721223 396.67721223 0 0 1-90.19747351 22.54936837 1750.5920226 1750.5920226 0 0 1-78.92278872-87.37880291c6.97339206-1.30786311 12.61073445-4.12653492 16.91202598-8.45601299a873.16791418 873.16791418 0 0 0 78.92278872-16.91202599z" fill="#bfbfbf" p-id="3233"></path><path d="M386.05219227 838.08169952c36.85130544 14.84875852 74.43546476 24.24620829 112.74684188 28.18671079a13.69310398 13.69310398 0 0 0-11.27468481 2.81867059l90.19747352 90.1974735a13.69310398 13.69310398 0 0 1-11.27468357 2.8186706c-39.40502126-1.83213655-76.98918059-9.35235007-112.74684189-22.54936838a27.81464591 27.81464591 0 0 0 16.91202597-2.81867059 2212.23960212 2212.23960212 0 0 0-78.92278871-81.74146052c-4.99468546-4.65080715-6.87192049-10.28814954-5.63734239-16.91202599z" fill="#bfbfbf" p-id="3234"></path><path d="M622.82055961 860.63106791c-4.30129152 4.32947929-9.93863392 7.14814988-16.91202598 8.45601299a1750.5920226 1750.5920226 0 0 0 78.92278872 87.37880291c-39.90110693 10.90261994-79.36250129 12.77985497-118.38418306 5.63734119a13.69310398 13.69310398 0 0 0 11.27468357-2.8186706l-90.19747352-90.1974735a13.69310398 13.69310398 0 0 1 11.27468481-2.81867059h73.28544752c16.8105544-2.61008893 33.72258038-4.48732396 50.73607794-5.6373424z" fill="#bfbfbf" p-id="3235"></path></svg>