<svg width="240" height="77" fill="none" xmlns="http://www.w3.org/2000/svg"><g clip-path="url(#a)"><g clip-path="url(#b)" fill="#bfbfbf"><path d="M113.061 11.932h-7.277v20.05h-4.021v-20.05h-7.217V8.681h18.515v3.251Zm7.998 20.071h-4.037V8.665h4.037v23.338Zm23.534-3.029c-.31.391-.655.754-1.03 1.084-.512.435-1.081.8-1.69 1.083a12.27 12.27 0 0 1-2.482.851 15.02 15.02 0 0 1-3.408.341 10.493 10.493 0 0 1-4.032-.753 8.78 8.78 0 0 1-3.148-2.167 9.912 9.912 0 0 1-2.043-3.512 14.323 14.323 0 0 1-.732-4.763V19.6c-.024-1.608.198-3.21.656-4.752a10.016 10.016 0 0 1 1.891-3.533 7.974 7.974 0 0 1 3.018-2.167 10.218 10.218 0 0 1 4.037-.753 11.31 11.31 0 0 1 3.718.541 7.619 7.619 0 0 1 2.676 1.545 7.244 7.244 0 0 1 1.718 2.362c.427.955.709 1.97.835 3.008h-3.978a6.73 6.73 0 0 0-.482-1.68 4.042 4.042 0 0 0-.921-1.333 4.175 4.175 0 0 0-1.442-.883 5.894 5.894 0 0 0-2.042-.32 5.42 5.42 0 0 0-2.477.542 4.64 4.64 0 0 0-1.75 1.544 7.383 7.383 0 0 0-1.04 2.504 15.035 15.035 0 0 0-.347 3.37v1.572a12.68 12.68 0 0 0 .417 3.408c.237.9.643 1.745 1.198 2.492a5.125 5.125 0 0 0 1.891 1.54 5.82 5.82 0 0 0 2.525.541c.599.009 1.197-.037 1.788-.135a6.503 6.503 0 0 0 1.257-.342 3.718 3.718 0 0 0 1.382-.932v-4.611h-4.812V20.05h8.849v8.925Zm18.732-7.391h-9.564v7.18h11.19v3.25h-15.248V8.666h15.172v3.25h-11.114v6.444h9.564v3.224Zm14.176 1.425h-4.525v8.995h-4.053V8.665h8.209a12.836 12.836 0 0 1 3.571.455 7.33 7.33 0 0 1 2.655 1.344 5.773 5.773 0 0 1 1.626 2.205c.384.968.569 2.004.542 3.045a6.581 6.581 0 0 1-1.133 3.923 7.227 7.227 0 0 1-3.148 2.428l5.24 9.754v.211h-4.335l-4.649-9.022Zm-4.525-3.251h4.172a5.818 5.818 0 0 0 1.908-.288 3.872 3.872 0 0 0 1.36-.802c.361-.34.641-.756.818-1.219a4.32 4.32 0 0 0 .271-1.555 4.908 4.908 0 0 0-.255-1.626 3.251 3.251 0 0 0-.785-1.251 3.52 3.52 0 0 0-1.355-.802 6.106 6.106 0 0 0-1.978-.282h-4.156v7.825ZM96.198 66.656V43.317h7.998a14.093 14.093 0 0 1 3.398.374 7.234 7.234 0 0 1 2.552 1.149 5.028 5.028 0 0 1 1.593 1.961 6.69 6.69 0 0 1 .542 2.829 5.02 5.02 0 0 1-.867 2.888 5.556 5.556 0 0 1-2.53 1.989 5.56 5.56 0 0 1 1.755.79c.48.334.898.748 1.236 1.226.327.474.572 1 .726 1.555a6.39 6.39 0 0 1 .244 1.766 7.401 7.401 0 0 1-.542 2.959c-.363.83-.92 1.56-1.626 2.13a6.999 6.999 0 0 1-2.552 1.289 12.257 12.257 0 0 1-3.387.434h-8.54Zm4.054-13.515h3.977a4.581 4.581 0 0 0 2.959-.856 2.952 2.952 0 0 0 1.083-2.428c0-1.155-.328-1.99-.986-2.503-.661-.51-1.68-.77-3.072-.77h-3.961v6.557Zm0 2.98v7.294h4.508a5.452 5.452 0 0 0 1.756-.255 3.418 3.418 0 0 0 1.273-.731 3.01 3.01 0 0 0 .769-1.127c.174-.466.26-.96.255-1.458a3.877 3.877 0 0 0-.91-2.71c-.613-.66-1.626-.996-2.97-.996l-4.681-.016Zm25.89 1.545h-4.541v8.99h-4.058V43.317h8.231a12.904 12.904 0 0 1 3.576.455 7.282 7.282 0 0 1 2.65 1.35 5.704 5.704 0 0 1 1.625 2.2c.384.968.569 2.004.542 3.045a6.572 6.572 0 0 1-1.132 3.923 7.197 7.197 0 0 1-3.149 2.428l5.262 9.759v.206h-4.335l-4.671-9.017Zm-4.519-3.251h4.167a5.814 5.814 0 0 0 1.907-.288 3.862 3.862 0 0 0 1.36-.802c.362-.338.642-.755.819-1.219a4.234 4.234 0 0 0 .271-1.555 4.854 4.854 0 0 0-.255-1.626 3.203 3.203 0 0 0-.786-1.251 3.511 3.511 0 0 0-1.355-.802 6.225 6.225 0 0 0-1.977-.282h-4.173l.022 7.825Zm35.742 1.181a15.146 15.146 0 0 1-.699 4.768 10.468 10.468 0 0 1-1.967 3.577 8.468 8.468 0 0 1-3.046 2.248 10.236 10.236 0 0 1-7.868 0 8.755 8.755 0 0 1-3.072-2.248 10.427 10.427 0 0 1-2-3.577 14.809 14.809 0 0 1-.715-4.768v-1.187a14.932 14.932 0 0 1 .715-4.78 10.573 10.573 0 0 1 1.984-3.586 8.486 8.486 0 0 1 3.056-2.26 9.576 9.576 0 0 1 3.928-.786 9.685 9.685 0 0 1 3.951.786 8.47 8.47 0 0 1 3.061 2.26 10.368 10.368 0 0 1 1.973 3.587c.485 1.546.721 3.16.699 4.78v1.186Zm-4.059-1.22a14.27 14.27 0 0 0-.374-3.451 7.367 7.367 0 0 0-1.084-2.509 4.74 4.74 0 0 0-1.772-1.533 5.288 5.288 0 0 0-2.378-.542 5.164 5.164 0 0 0-2.341.542 4.827 4.827 0 0 0-1.772 1.533 7.384 7.384 0 0 0-1.122 2.509 13.47 13.47 0 0 0-.395 3.452v1.219c-.017 1.166.116 2.33.395 3.463a7.54 7.54 0 0 0 1.084 2.54 4.875 4.875 0 0 0 1.788 1.54 5.224 5.224 0 0 0 2.352.542 4.756 4.756 0 0 0 4.14-2.054c.972-1.366 1.456-3.363 1.452-5.993l.027-1.257Zm15.438 2.195-2.644 2.807v7.278h-4.059V43.317h4.059v10.946l2.243-2.774 6.828-8.172h4.876l-8.67 10.339 9.169 13.005h-4.812l-6.99-10.09Zm28.28-.336h-9.585v7.18h11.205v3.251h-15.269V43.317h15.172v3.251h-11.108v6.449h9.585v3.218Zm14.154 1.431h-4.503v8.99h-4.059V43.317h8.21a12.843 12.843 0 0 1 3.571.455 7.275 7.275 0 0 1 2.655 1.35 5.704 5.704 0 0 1 1.625 2.2c.384.968.569 2.004.542 3.045a6.572 6.572 0 0 1-1.132 3.923 7.229 7.229 0 0 1-3.149 2.428l5.284 9.759v.206h-4.335l-4.709-9.017Zm-4.519-3.251h4.167a5.814 5.814 0 0 0 1.907-.288 3.862 3.862 0 0 0 1.36-.802 3.25 3.25 0 0 0 .818-1.219c.188-.496.28-1.024.271-1.555a4.828 4.828 0 0 0-.254-1.626 3.266 3.266 0 0 0-.786-1.251 3.511 3.511 0 0 0-1.355-.802 6.228 6.228 0 0 0-1.978-.282h-4.134l-.016 7.825Zm29.277 6.231a3.635 3.635 0 0 0-.206-1.257 2.484 2.484 0 0 0-.764-1.019 6.332 6.332 0 0 0-1.523-.894 23.471 23.471 0 0 0-2.492-.888 23.974 23.974 0 0 1-3.078-1.138 10.599 10.599 0 0 1-2.428-1.49 6.366 6.366 0 0 1-1.593-1.957 5.432 5.432 0 0 1-.58-2.53 5.653 5.653 0 0 1 .602-2.596c.407-.8.984-1.5 1.691-2.053a8.126 8.126 0 0 1 2.611-1.35 11.22 11.22 0 0 1 3.371-.477 10.334 10.334 0 0 1 3.538.57 7.88 7.88 0 0 1 2.655 1.544 6.789 6.789 0 0 1 1.659 2.27c.386.864.583 1.8.579 2.748h-4.042a4.371 4.371 0 0 0-.266-1.561 3.195 3.195 0 0 0-.807-1.236 3.796 3.796 0 0 0-1.376-.812 6.135 6.135 0 0 0-1.973-.288 6.28 6.28 0 0 0-1.858.244 3.747 3.747 0 0 0-1.312.672 2.603 2.603 0 0 0-.764 1.024 3.252 3.252 0 0 0-.249 1.285 2.565 2.565 0 0 0 1.225 2.167 12.993 12.993 0 0 0 3.744 1.626c1.172.331 2.314.761 3.414 1.284a9.921 9.921 0 0 1 2.395 1.593 5.767 5.767 0 0 1 1.42 2.005c.32.797.478 1.65.466 2.509a5.883 5.883 0 0 1-.586 2.65 5.65 5.65 0 0 1-1.669 2.004 7.732 7.732 0 0 1-2.622 1.268 12.466 12.466 0 0 1-3.43.44c-1.121 0-2.237-.154-3.317-.456a9.252 9.252 0 0 1-2.931-1.382 7.082 7.082 0 0 1-2.092-2.297 6.376 6.376 0 0 1-.796-3.251h4.058a4.287 4.287 0 0 0 .391 1.902c.252.513.623.96 1.083 1.3.488.35 1.041.6 1.626.737a8.359 8.359 0 0 0 1.999.228c1.415 0 2.471-.282 3.181-.857a2.749 2.749 0 0 0 1.046-2.28ZM38.191 76.371h-.282A38.186 38.186 0 0 1 38.18 0h.282a38.186 38.186 0 1 1-.27 76.371Zm0-73.77a35.585 35.585 0 1 0-.25 71.17h.26a35.585 35.585 0 0 0 .256-71.17h-.266Z"/><path d="M58.674 15.54a8.8 8.8 0 0 0-10.838 6.135A30.475 30.475 0 0 1 20.69 43.89c-.716.05-1.447.076-2.168.076a30.382 30.382 0 0 1-17.215-5.32 36.684 36.684 0 0 0 3.3 14.825 36.848 36.848 0 0 1 3.446-8.567c1.701.57 3.447 1 5.218 1.284a118.132 118.132 0 0 0 2.168 16.706h-.921a36.79 36.79 0 0 1-3.885-.206 38.356 38.356 0 0 0 2.763 2.79h1.122a44.43 44.43 0 0 0 6.416-.482c12.316-1.81 22.33-6.34 29.759-13.47 6.573-6.313 11.195-14.544 14.132-25.154a8.817 8.817 0 0 0-6.15-10.832ZM35.205 58.48c-2.037-4.964-4.172-8.816-5.754-10.865-1.339-1.74-2.964-.655-2.385 1.534 1.084 3.993 1.86 7.765 2.466 11.33a66.653 66.653 0 0 1-8.995 1.945h-.195c-.542-6.285-.336-11.487.542-15.952a32.895 32.895 0 0 0 12.614-3.522c3.333 2.709 7.045 6.556 10.735 10.485a45.484 45.484 0 0 1-9.028 5.061v-.016Zm27.094-32.8c-2.986 10.8-7.933 19.21-14.929 25.311a101.02 101.02 0 0 0-7.591-12.149 33.894 33.894 0 0 0 4.335-4.416 107.318 107.318 0 0 1 8.783 4.443c1.084.613 2.786-.541.759-2.465a66.08 66.08 0 0 0-6.925-5.69 32.625 32.625 0 0 0 3.62-8.345 6.22 6.22 0 0 1 5.96-4.551 6.301 6.301 0 0 1 1.653.227 6.21 6.21 0 0 1 4.335 7.651v-.016Z"/></g></g><defs><clipPath id="a"><path fill="#bfbfbf" d="M0 0h240v76.371H0z"/></clipPath><clipPath id="b"><path fill="#bfbfbf" d="M0 0h240v76.371H0z"/></clipPath></defs></svg>