<?xml version="1.0" standalone="no"?><!DOCTYPE svg PUBLIC "-//W3C//DTD SVG 1.1//EN" "http://www.w3.org/Graphics/SVG/1.1/DTD/svg11.dtd"><svg t="1744077429389" class="icon" viewBox="0 0 3238 1024" version="1.1" xmlns="http://www.w3.org/2000/svg" p-id="1780" xmlns:xlink="http://www.w3.org/1999/xlink" width="632.421875" height="200"><path d="M2408.499187 417.145263h-133.699368a5.470316 5.470316 0 0 0-5.48379 5.48379v169.903158a5.551158 5.551158 0 0 0 5.48379 5.497263h26.287158a5.551158 5.551158 0 0 0 5.483789-5.497263v-20.07579h70.224842v13.406316a5.524211 5.524211 0 0 0 5.48379 5.497263h26.219789a5.497263 5.497263 0 0 0 5.48379-5.497263V422.629053a5.510737 5.510737 0 0 0-5.48379-5.497264z m-31.703579 123.324632h-70.224842v-89.411369h70.224842v89.411369z m32.606316-204.328421h-136.34021a4.581053 4.581053 0 0 0-4.581053 4.581052v26.071579c0 2.533053 2.048 4.581053 4.581053 4.581053h136.34021a4.581053 4.581053 0 0 0 4.581053-4.581053v-26.071579a4.581053 4.581053 0 0 0-4.581053-4.581052z m0-78.69979h-136.34021a4.581053 4.581053 0 0 0-4.581053 4.581053v25.653895a4.581053 4.581053 0 0 0 4.581053 4.594526h136.34021a4.581053 4.581053 0 0 0 4.581053-4.581053v-25.653894a4.581053 4.581053 0 0 0-4.581053-4.594527z m278.784 209.125053a5.551158 5.551158 0 0 0 5.48379-5.497263v-111.238737a5.362526 5.362526 0 0 0-1.603369-3.880421 5.578105 5.578105 0 0 0-3.880421-1.616842h-227.691789a5.551158 5.551158 0 0 0-3.880421 1.616842 5.349053 5.349053 0 0 0-1.603369 3.880421v111.238737a5.537684 5.537684 0 0 0 5.48379 5.497263h227.691789zM2495.673924 378.610526h157.116632v54.298948h-157.116632V378.610526z m-288.242526 116.318316h-32.741053a3.637895 3.637895 0 0 0-3.543579 2.856421c-2.155789 10.145684-4.311579 19.186526-6.534737 27.109053-4.864 20.224-14.740211 28.227368-32.40421 28.227368h-18.836211c-22.245053 0-28.914526-8.690526-28.227368-29.278316v-79.737263a5.551158 5.551158 0 0 0-5.483789-5.483789h-178.324211a7.289263 7.289263 0 0 0-7.302737 7.356631v28.860632a97.859368 97.859368 0 0 1-17.381052 56.373895 140.261053 140.261053 0 0 1-46.645895 33.374315 3.705263 3.705263 0 0 0-1.953684 4.217264 3.637895 3.637895 0 0 0 0.768 1.482105l23.565473 26.839579a3.584 3.584 0 0 0 4.244211 0.902737c49.637053-22.298947 76.355368-56.778105 80.154947-103.450948 0.633263-7.720421 1.037474-19.321263 1.037474-19.321263h103.383579v60.065684c0.700632 38.305684 20.857263 56.939789 59.580631 56.93979h37.200842c33.778526 0 54.150737-14.470737 63.258948-50.688l9.741474-41.714526a3.584 3.584 0 0 0 0.215578-1.765053 3.557053 3.557053 0 0 0-2.021052-2.816 3.610947 3.610947 0 0 0-1.751579-0.350316z m513.077895 57.424842h-78.484211l22.096842-55.134316a3.597474 3.597474 0 0 0-0.350316-3.435789 3.732211 3.732211 0 0 0-3.045052-1.630316h-34.209684a5.537684 5.537684 0 0 0-5.146948 3.476211l-22.245052 56.72421h-45.810527l-24.400842-56.858947a5.658947 5.658947 0 0 0-5.079579-3.341474h-33.994105a3.678316 3.678316 0 0 0-3.341474 5.200842l25.519158 54.999579h-69.52421a5.564632 5.564632 0 0 0-5.497264 5.497263v25.869474a5.470316 5.470316 0 0 0 5.497264 5.48379h278.568421a5.510737 5.510737 0 0 0 5.497263-5.497264v-25.869473a5.564632 5.564632 0 0 0-3.772632-5.241263 5.524211 5.524211 0 0 0-2.277052-0.242527z" fill="#bfbfbf" p-id="1781"></path><path d="M1821.167819 258.344421h93.507368v47.279158l-61.58821 2.492632a3.624421 3.624421 0 0 0-3.543579 3.624421v27.324631a3.543579 3.543579 0 0 0 1.118316 2.654316 3.759158 3.759158 0 0 0 2.694737 1.024l61.318736-2.640842v23.578947c0 30.086737 13.904842 48.653474 51.375158 48.653474h176.518737a5.443368 5.443368 0 0 0 5.079579-3.395369 5.605053 5.605053 0 0 0 0.417684-2.101894v-24.535579a5.618526 5.618526 0 0 0-1.616842-3.880421 5.443368 5.443368 0 0 0-3.880421-1.616842h-161.010526c-18.836211 0-22.312421-6.952421-21.962105-22.514527v-16.060631l143.279157-6.117053a3.678316 3.678316 0 0 0 3.543579-3.624421v-26.812632a3.557053 3.557053 0 0 0-0.296421-1.441684 3.503158 3.503158 0 0 0-0.835368-1.212631 3.678316 3.678316 0 0 0-2.694737-1.024l-142.99621 5.820631v-45.46021h193.953684l-15.36 44.422737a3.287579 3.287579 0 0 0 2.223158 4.176842l31.501473 8.34021a3.664842 3.664842 0 0 0 4.446316-2.290526l19.806316-56.724211v-29.413052a5.510737 5.510737 0 0 0-5.281684-5.214316h-231.289263v-36.149895h181.719578a5.524211 5.524211 0 0 0 5.497264-5.497263v-25.869474a5.551158 5.551158 0 0 0-5.497264-5.483789h-181.719578V128.202105a5.470316 5.470316 0 0 0-5.497264-5.497263h-33.926736a5.470316 5.470316 0 0 0-5.497264 5.497263v93.44h-132.648421a7.316211 7.316211 0 0 0-7.370105 7.370106v122.77221c0 53.665684-4.648421 98.371368-13.904842 130.425263a244.951579 244.951579 0 0 1-40.380632 77.648842 3.637895 3.637895 0 0 0-0.714105 2.66779 3.637895 3.637895 0 0 0 1.333895 2.411789l32.256 25.869474a3.691789 3.691789 0 0 0 5.146947-0.633263c43.722105-54.649263 64.727579-135.087158 62.989474-237.837474l-0.215579-93.992421z m588.234105-80.64h-41.714526l-17.313684-49.785263a7.006316 7.006316 0 0 0-6.332632-4.513684h-27.041684a5.470316 5.470316 0 0 0-5.214316 4.486737 5.429895 5.429895 0 0 0 0.148211 2.465684l15.777684 47.198316h-69.524211a4.634947 4.634947 0 0 0-4.581052 4.581052v27.189895a4.540632 4.540632 0 0 0 4.581052 4.527158h151.349895a4.500211 4.500211 0 0 0 4.244211-2.775579 4.554105 4.554105 0 0 0 0.350315-1.751579V182.164211a4.864 4.864 0 0 0-0.40421-1.751579 4.648421 4.648421 0 0 0-4.325053-2.694737z m316.806737 21.827368l-20.857263-17.030736a4.581053 4.581053 0 0 0-3.624421-1.226106 4.702316 4.702316 0 0 0-3.328 1.913264 350.086737 350.086737 0 0 1-45.258105 48.249263c-9.404632-8.623158-18.189474-17.92-26.273685-27.809685a326.130526 326.130526 0 0 0 43.789474-43.870315 4.675368 4.675368 0 0 0-0.552421-6.534737l-20.857263-17.030737a4.554105 4.554105 0 0 0-5.133474-0.538947 4.675368 4.675368 0 0 0-1.401263 1.17221 289.751579 289.751579 0 0 1-37.12 37.402948 292.486737 292.486737 0 0 1-14.538105-26.772211c-0.485053-1.037474-0.970105-2.021053-1.38779-3.058526-0.417684-1.037474-0.970105-2.021053-1.387789-3.058527-0.417684-1.037474 0-0.700632-0.485053-1.118315a8.394105 8.394105 0 0 0-7.653052-5.079579h-125.062737a5.483789 5.483789 0 0 0-5.497263 5.497263v24.751158a5.618526 5.618526 0 0 0 1.616842 3.880421 5.443368 5.443368 0 0 0 3.880421 1.616842h87.322947a272.370526 272.370526 0 0 1-44.638316 56.104421c-11.951158-13.904842-24.858947-26.947368-38.656-39.006316a3.476211 3.476211 0 0 0-4.729263 0l-18.83621 19.132632a3.503158 3.503158 0 0 0 0 4.850526c12.409263 11.870316 23.902316 24.656842 34.411789 38.238316a272.869053 272.869053 0 0 1-40.811789 24.818526 3.705263 3.705263 0 0 0-1.994106 3.961263 3.597474 3.597474 0 0 0 0.606316 1.468632l18.485895 27.809684a3.772632 3.772632 0 0 0 4.877474 1.172211 304.774737 304.774737 0 0 0 49.704421-33.926737v31.770947a5.362526 5.362526 0 0 0 1.603368 3.893895 5.497263 5.497263 0 0 0 3.893895 1.616842h133.820631a5.443368 5.443368 0 0 0 5.079579-3.408842 5.605053 5.605053 0 0 0 0.417684-2.088421v-31.770948a304.774737 304.774737 0 0 0 49.704422 33.913264 3.772632 3.772632 0 0 0 4.864-1.172211l18.499368-27.809684a3.664842 3.664842 0 0 0-1.38779-5.416421 276.749474 276.749474 0 0 1-35.395368-20.870737 386.56 386.56 0 0 0 44.705684-48.316632 4.581053 4.581053 0 0 0-0.417684-6.332631z m-224.619789 75.493053a313.802105 313.802105 0 0 0 71.666526-88.562526 312.333474 312.333474 0 0 0 71.895579 88.562526h-143.562105z m587.250526 265.445053a76.005053 76.005053 0 0 1-41.714526 9.795368c-8.205474 0-18.000842-0.404211-31.905685-0.902737a2.991158 2.991158 0 0 0-3.058526 3.476211l5.968842 34.762105a5.861053 5.861053 0 0 0 5.712842 4.796632c54.703158 0 75.493053-2.775579 98.15579-18.068211 16.693895-10.913684 19.402105-56.32 23.080421-126.881684h-41.714527c-2.842947 52.277895-5.968842 87.04-14.524631 93.022316z m-209.057684-322.937263a5.780211 5.780211 0 0 0 8.421052 0.970105l22.245053-18.553263a7.774316 7.774316 0 0 0 2.842947-5.497263 7.895579 7.895579 0 0 0-2.007579-5.847579 545.576421 545.576421 0 0 0-49.434947-47.063579 5.847579 5.847579 0 0 0-7.437474 0l-22.110315 16.761263a5.389474 5.389474 0 0 0-1.738106 6.29221 5.308632 5.308632 0 0 0 1.320421 1.913263 390.076632 390.076632 0 0 1 47.898948 51.024843z m205.231158-15.023158l23.147789 17.313684a7.733895 7.733895 0 0 0 10.159158-0.61979 300.395789 300.395789 0 0 0 46.848-59.715368 5.712842 5.712842 0 0 0 0.714105-4.473263 5.753263 5.753263 0 0 0-2.654316-3.664842l-24.46821-15.090527a5.510737 5.510737 0 0 0-6.952421 1.320421 456.582737 456.582737 0 0 1-47.077053 55.619369 5.861053 5.861053 0 0 0 0.282948 9.323789z m-1392.451369 95.595789h-124.658526a892.429474 892.429474 0 0 0 111.925895-115.60421 3.637895 3.637895 0 0 0 0.296421-4.176842 3.476211 3.476211 0 0 0-0.983579-1.104843l-28.860632-20.870736a5.335579 5.335579 0 0 0-7.437474 1.050947 805.807158 805.807158 0 0 1-144.53221 140.705684h-47.898947v-74.940631h109.635368a5.470316 5.470316 0 0 0 5.497263-5.48379v-27.055158a5.605053 5.605053 0 0 0-5.497263-5.483789h-109.635368V129.522526a5.470316 5.470316 0 0 0-5.497264-5.497263h-33.994105a5.483789 5.483789 0 0 0-5.497263 5.497263v55.619369h-118.325895a5.551158 5.551158 0 0 0-5.483789 5.483789v27.055158a5.483789 5.483789 0 0 0 5.483789 5.48379h118.191158v74.940631H1233.297503a5.564632 5.564632 0 0 0-5.497263 5.497263v28.362106a5.564632 5.564632 0 0 0 5.497263 5.497263h207.872a800.525474 800.525474 0 0 1-210.458947 92.739368 3.691789 3.691789 0 0 0-2.425263 4.796632l13.904842 37.052631a5.497263 5.497263 0 0 0 6.952421 3.341474 894.019368 894.019368 0 0 0 100.176842-37.888v105.189053a44.907789 44.907789 0 0 0 13.419789 33.994105 47.050105 47.050105 0 0 0 34.762106 12.368842h190.908631c27.445895 0 46.834526-4.796632 58.192842-14.389895 10.428632-7.828211 18.310737-31.002947 23.632842-69.52421a3.813053 3.813053 0 0 0-0.121263-1.549474 3.786105 3.786105 0 0 0-2.034526-2.290526 3.610947 3.610947 0 0 0-1.522526-0.323369h-39.141053a3.678316 3.678316 0 0 0-3.624421 3.125895c-2.964211 21.557895-6.871579 33.994105-11.749053 37.322105a46.08 46.08 0 0 1-29.33221 6.965895h-171.021474c-12.032 0-18.081684-5.281684-18.081684-15.993263v-39.626105a1247.191579 1247.191579 0 0 0 264.946526-64.161685 5.564632 5.564632 0 0 0 3.274105-6.965894l-12.449684-33.145263a3.705263 3.705263 0 0 0-4.729263-2.15579c-140.288 52.816842-231.087158 64.431158-251.109053 66.452211v-36.500211a902.157474 902.157474 0 0 0 110.753685-67.705263c4.931368-3.557053 9.795368-6.965895 14.659368-10.778947h173.810526a5.551158 5.551158 0 0 0 5.497264-5.497264V303.966316a5.658947 5.658947 0 0 0-3.462737-5.429895 5.605053 5.605053 0 0 0-2.236632-0.40421z" fill="#bfbfbf" p-id="1782"></path><path d="M3230.663398 421.861053a314.650947 314.650947 0 0 1-104.286316-65.010527h99.274105a5.510737 5.510737 0 0 0 5.497264-5.483789v-28.77979a5.578105 5.578105 0 0 0-5.497264-5.564631h-256.107789a420.675368 420.675368 0 0 0 23.767579-45.056h212.318316a5.510737 5.510737 0 0 0 5.497263-5.48379v-27.809684a5.524211 5.524211 0 0 0-5.497263-5.497263h-197.160421c1.953684-5.901474 3.826526-11.883789 5.497263-17.933474a409.815579 409.815579 0 0 0 14.942316-87.942737 3.287579 3.287579 0 0 0-0.215579-1.347368 3.516632 3.516632 0 0 0-1.845895-1.926737 3.503158 3.503158 0 0 0-1.347369-0.269474h-36.284631a4.823579 4.823579 0 0 0-4.796632 4.378948 357.335579 357.335579 0 0 1-23.915789 105.040842H2798.791398a5.497263 5.497263 0 0 0-5.497263 5.497263v27.809684a5.564632 5.564632 0 0 0 5.497263 5.497263h143.494737a351.488 351.488 0 0 1-29.062737 45.042527h-125.143579a5.524211 5.524211 0 0 0-5.551158 5.564631v28.77979a5.443368 5.443368 0 0 0 5.551158 5.483789h90.381474a358.777263 358.777263 0 0 1-101.295158 70.157474 8.003368 8.003368 0 0 0-4.271158 4.796632 8.084211 8.084211 0 0 0 0.592842 6.386526l16.410947 29.763368a8.394105 8.394105 0 0 0 11.11579 3.476211 414.140632 414.140632 0 0 0 73.202526-46.44379v17.178948a5.564632 5.564632 0 0 0 5.564632 5.497263h72.165052c-11.398737 45.244632-67.503158 92.173474-130.56 108.032a3.018105 3.018105 0 0 0-2.021052 4.176842l14.888421 31.622737a5.861053 5.861053 0 0 0 6.952421 3.125895 231.114105 231.114105 0 0 0 98.438737-53.598316 176.559158 176.559158 0 0 0 55.619368-93.372632h150.447158c0-0.754526 0.552421-10.010947 1.037474-19.186526a353.953684 353.953684 0 0 0 64.592842 35.247158 8.340211 8.340211 0 0 0 10.698105-3.893895l13.904842-26.691368a8.003368 8.003368 0 0 0-2.142316-9.660632 8.030316 8.030316 0 0 0-3.139368-1.603368z m-338.782316-11.88379a411.257263 411.257263 0 0 0 49.92-53.126737h127.08379a361.674105 361.674105 0 0 0 52.560842 53.126737h-229.564632z m-1485.473684 328.353684h-57.222737v158.989474h-23.430737v-158.989474h-57.141895v-19.2h137.795369v19.2z m61.453474 158.989474h-23.498106V719.144421h23.498106v178.176z m184.72421-23.363368a54.487579 54.487579 0 0 1-25.23621 19.402105 102.696421 102.696421 0 0 1-37.753264 6.4 73.148632 73.148632 0 0 1-38.656-10.226526 68.082526 68.082526 0 0 1-26.138947-29.062737 99.732211 99.732211 0 0 1-9.458526-43.654737v-15.575579c0-26.839579 6.265263-47.696842 18.768842-62.57179a65.414737 65.414737 0 0 1 52.776421-22.096842 67.435789 67.435789 0 0 1 44.907789 14.241685 62.181053 62.181053 0 0 1 20.857264 40.461473h-23.498106c-4.634947-23.673263-18.688-35.516632-42.13221-35.516631a41.741474 41.741474 0 0 0-35.799579 16.613052c-8.138105 11.048421-12.247579 27.109053-12.314948 48.033685v14.605473a76.085895 76.085895 0 0 0 13.904843 47.696842 44.557474 44.557474 0 0 0 37.133473 17.717895 82.095158 82.095158 0 0 0 23.080421-2.910316 36.149895 36.149895 0 0 0 16.397474-9.943579v-39.909052h-41.216v-19.186527h64.579368l-0.202105 65.482106z m149.948632-59.014737h-77.446737v63.191579h89.694316v19.186526h-112.976842V719.144421h111.993263v19.186526h-88.710737v57.424842h77.244631l0.202106 19.186527z m117.221052 10.280421h-41.714526v72.097684h-23.632842V719.144421h59.014737a70.090105 70.090105 0 0 1 46.309052 13.891368 49.556211 49.556211 0 0 1 16.195369 39.909053 47.845053 47.845053 0 0 1-8.973474 28.995369 54.110316 54.110316 0 0 1-25.020631 18.485894l41.714526 75.641263v1.468632h-25.236211l-38.656-72.313263z m-41.714526-19.186526h36.082526a40.879158 40.879158 0 0 0 27.809685-9.108211 30.666105 30.666105 0 0 0 10.293894-24.252632 32.431158 32.431158 0 0 0-9.808842-25.384421 41.714526 41.714526 0 0 0-28.510316-8.96h-35.866947v67.705264z m212.601263 91.28421V719.144421h58.529684c19.334737 0 33.926737 4.028632 43.668211 12.018526a43.210105 43.210105 0 0 1 14.592 35.462737 36.163368 36.163368 0 0 1-6.952421 22.096842 46.484211 46.484211 0 0 1-19.321263 14.888421 41.135158 41.135158 0 0 1 22.797473 15.292632c5.497263 7.909053 8.232421 17.421474 7.78779 27.041684a47.669895 47.669895 0 0 1-15.575579 37.685895 64.296421 64.296421 0 0 1-43.937684 13.904842l-61.588211-0.215579z m23.498105-102.197895h35.530106a36.971789 36.971789 0 0 0 24.602947-7.706947 25.882947 25.882947 0 0 0 9.242947-20.870737 25.317053 25.317053 0 0 0-8.542315-21.342316 41.728 41.728 0 0 0-26.071579-6.952421h-34.762106v56.872421z m0 18.836211v64.175158h38.790737a37.268211 37.268211 0 0 0 25.936842-8.55579 29.763368 29.763368 0 0 0 9.445053-23.430737c0-21.450105-11.587368-32.188632-34.748632-32.188631h-39.424z m207.939369 11.264h-41.714526v72.097684h-23.632843V719.144421h58.947369c20.116211 0 35.570526 4.621474 46.376421 13.891368a49.556211 49.556211 0 0 1 16.195368 39.909053 47.858526 47.858526 0 0 1-8.973473 28.995369 54.123789 54.123789 0 0 1-25.020632 18.485894l41.714526 75.641263v1.468632h-25.23621l-38.656-72.313263z m-41.714526-19.186526h35.664842a40.609684 40.609684 0 0 0 27.809684-9.108211 30.477474 30.477474 0 0 0 10.361263-24.252632 32.431158 32.431158 0 0 0-9.808842-25.384421 41.687579 41.687579 0 0 0-28.496842-8.96h-35.94779l0.417685 67.705264z m277.746526 7.922526a109.972211 109.972211 0 0 1-8.838737 45.756631 66.155789 66.155789 0 0 1-24.953263 29.749895 68.837053 68.837053 0 0 1-100.257684-29.547789 104.394105 104.394105 0 0 1-9.242948-44.355369v-12.853894a109.945263 109.945263 0 0 1 8.906106-45.406316 70.170947 70.170947 0 0 1 43.452631-37.632 70.305684 70.305684 0 0 1 57.007158 7.397052 66.250105 66.250105 0 0 1 25.088 29.965474 109.864421 109.864421 0 0 1 8.838737 45.67579v11.250526z m-23.363369-11.452632c0-21.153684-4.244211-37.362526-12.719157-48.680421a45.446737 45.446737 0 0 0-35.354948-16.949895 45.298526 45.298526 0 0 0-35.354947 16.949895 78.821053 78.821053 0 0 0-13.136842 47.063579v13.069474a80.060632 80.060632 0 0 0 12.934737 48.330105 45.204211 45.204211 0 0 0 54.851368 13.312 45.325474 45.325474 0 0 0 15.912421-12.341895c8.353684-11.048421 12.584421-26.906947 12.867368-47.562105v-13.20421z m113.879579 11.951158L2626.867187 837.12v60.200421h-23.498105V719.144421h23.498105v88.077474l79.184842-88.090948h28.362106l-70.076632 78.69979 75.776 99.489684h-27.809684l-63.676632-82.863158z m222.612211 0.485053h-77.244632v63.191579h89.748211v19.186526h-113.246316V719.144421h111.993263v19.186526h-88.495158v57.424842h77.244632v19.186527z m117.072842 10.280421h-41.714526v72.097684h-23.565474V719.144421h58.947368c20.116211 0 35.557053 4.621474 46.309053 13.891368a49.313684 49.313684 0 0 1 16.262737 39.909053 47.966316 47.966316 0 0 1-9.040842 28.995369 53.463579 53.463579 0 0 1-25.020632 18.485894l41.714527 75.641263v1.468632H3027.035608l-38.723368-72.313263z m-41.714526-19.186526h36.149894a40.744421 40.744421 0 0 0 27.809685-9.108211 30.679579 30.679579 0 0 0 10.361263-24.252632 32.094316 32.094316 0 0 0-9.876211-25.384421 41.701053 41.701053 0 0 0-28.429473-8.96h-36.015158v67.705264z m193.199158 11.816421a109.446737 109.446737 0 0 1-43.937685-21.342316 40.596211 40.596211 0 0 1-13.904842-31.205053 43.048421 43.048421 0 0 1 16.828632-34.762105 66.816 66.816 0 0 1 43.722105-13.904842 73.202526 73.202526 0 0 1 32.754526 6.952421c9.108211 4.311579 16.815158 11.115789 22.245053 19.60421a49.717895 49.717895 0 0 1 8.407579 27.661474h-23.632842a32.336842 32.336842 0 0 0-10.293895-25.438316 41.714526 41.714526 0 0 0-28.995368-9.310316 42.954105 42.954105 0 0 0-27.109053 7.639579 25.815579 25.815579 0 0 0-9.728 21.274948 22.959158 22.959158 0 0 0 9.242947 18.499368c9.485474 6.602105 20.156632 11.317895 31.420632 13.904842 12.139789 3.112421 23.821474 7.787789 34.762105 13.891369a52.978526 52.978526 0 0 1 18.634106 17.596631c4.163368 7.168 6.265263 15.36 6.049684 23.632842a41.701053 41.701053 0 0 1-16.896 34.762106 72.084211 72.084211 0 0 1-45.190737 13.002105 83.765895 83.765895 0 0 1-34.196211-6.952421 57.626947 57.626947 0 0 1-24.549052-19.267369 47.104 47.104 0 0 1-8.623158-27.79621h23.565474a30.652632 30.652632 0 0 0 11.964631 25.519158 49.987368 49.987368 0 0 0 31.838316 9.377684 46.807579 46.807579 0 0 0 28.577684-7.57221 24.683789 24.683789 0 0 0 9.876211-20.857264 24.064 24.064 0 0 0-9.189053-20.237473 104.609684 104.609684 0 0 0-33.643789-14.672842zM513.668029 1022.814316h-3.759157A511.407158 511.407158 0 0 1 513.533293 0.067368h3.813052a511.407158 511.407158 0 0 1-3.678316 1022.814316v-0.067368z m0-987.984842a476.564211 476.564211 0 0 0-3.408842 953.074526h3.543579a476.496842 476.496842 0 1 0 3.408842-952.993684l-3.543579-0.080842z" fill="#bfbfbf" p-id="1783"></path><path d="M787.938345 208.357053a117.625263 117.625263 0 0 0-144.963368 82.176 408.225684 408.225684 0 0 1-363.600842 297.633684A407.120842 407.120842 0 0 1 19.709293 517.591579 491.169684 491.169684 0 0 0 63.862556 715.856842a496.747789 496.747789 0 0 1 46.22821-114.714947c22.662737 7.612632 45.918316 13.365895 69.524211 17.178947a1590.056421 1590.056421 0 0 0 28.847158 223.717053h-12.301474a490.442105 490.442105 0 0 1-52.008421-2.708211 507.823158 507.823158 0 0 0 36.917895 37.322105h15.090526a590.807579 590.807579 0 0 0 85.854316-6.521263c164.985263-24.198737 298.954105-84.884211 398.578526-180.762947 88.010105-84.533895 149.962105-194.654316 189.237895-336.842105a118.191158 118.191158 0 0 0-81.893053-144.168421zM473.691608 783.373474c-27.257263-66.465684-55.619368-118.191158-77.096421-145.51579-17.933474-23.282526-39.626105-8.825263-31.838315 20.870737a1836.732632 1836.732632 0 0 1 32.943157 151.686737 892.294737 892.294737 0 0 1-120.400842 26.071579h-2.654315c-7.639579-84.183579-4.513684-153.856 7.450947-213.638737a440.643368 440.643368 0 0 0 168.933053-47.198316c44.638316 36.082526 94.760421 87.794526 143.76421 140.503579a610.654316 610.654316 0 0 1-121.101474 67.233684z m362.846316-439.309474c-40.057263 144.680421-106.24 257.226105-199.882105 338.997895a1361.852632 1361.852632 0 0 0-101.861053-162.964211 446.693053 446.693053 0 0 0 58.341053-59.162947 1466.987789 1466.987789 0 0 1 117.625263 59.580631c14.538105 8.138105 37.268211-6.952421 10.159158-33.024a879.993263 879.993263 0 0 0-92.820211-75.856842 442.462316 442.462316 0 0 0 48.666948-111.791158 83.429053 83.429053 0 0 1 80.02021-60.901052c7.464421 0 14.901895 0.997053 22.096842 2.991158a83.429053 83.429053 0 0 1 57.640422 102.130526z" fill="#bfbfbf" p-id="1784"></path></svg>