<?xml version="1.0" standalone="no"?><!DOCTYPE svg PUBLIC "-//W3C//DTD SVG 1.1//EN" "http://www.w3.org/Graphics/SVG/1.1/DTD/svg11.dtd"><svg t="1744019783167" class="icon" viewBox="0 0 1024 1024" version="1.1" xmlns="http://www.w3.org/2000/svg" p-id="1187" xmlns:xlink="http://www.w3.org/1999/xlink" width="200" height="200"><path d="M877.714286 48.761905H146.285714a97.52381 97.52381 0 0 0-97.523809 97.523809v731.428572a97.52381 97.52381 0 0 0 97.523809 97.523809h731.428572a97.52381 97.52381 0 0 0 97.523809-97.523809V146.285714a97.52381 97.52381 0 0 0-97.523809-97.523809zM146.285714 0h731.428572a146.285714 146.285714 0 0 1 146.285714 146.285714v731.428572a146.285714 146.285714 0 0 1-146.285714 146.285714H146.285714a146.285714 146.285714 0 0 1-146.285714-146.285714V146.285714a146.285714 146.285714 0 0 1 146.285714-146.285714z" fill="#bfbfbf" p-id="1188"></path><path d="M414.671238 720.11581H243.809524V261.36381h170.861714v458.752z m-66.121143-74.313143v-310.125715h-38.619428v310.125715h38.619428z m80.164572-221.184C460.702476 375.466667 484.303238 315.196952 499.516952 243.809524h60.854858c-2.730667 18.724571-6.241524 36.864-10.532572 54.418286h53.833143V243.809524h74.898286v54.418286h82.505143v70.217142h-82.505143v60.269715h76.068571v70.217143h-76.068571v64.950857h76.068571v70.217143h-76.068571v62.610285h88.941714v70.217143H463.823238v-276.772571a388.778667 388.778667 0 0 1-35.108571 40.374857V424.618667z m174.957714 272.091428v-62.610285h-64.950857v62.610285h64.950857z m0-132.827428v-64.950857h-64.950857v64.950857h64.950857z m0-135.168V368.444952h-64.950857v60.269715h64.950857z" fill="#bfbfbf" p-id="1189"></path></svg>