<?xml version="1.0" standalone="no"?><!DOCTYPE svg PUBLIC "-//W3C//DTD SVG 1.1//EN" "http://www.w3.org/Graphics/SVG/1.1/DTD/svg11.dtd"><svg t="1744018526751" class="icon" viewBox="0 0 1536 1024" version="1.1" xmlns="http://www.w3.org/2000/svg" p-id="2396" xmlns:xlink="http://www.w3.org/1999/xlink" width="300" height="200"><path d="M1025.15356202 874.26043701v-519.2271173c0-117.96073615-93.31488311-213.62346412-208.43242408-213.62346411H230.82594533A8.25583935 8.25583935 0 0 0 222.64397402 149.71421611v724.5454967c0 4.59792316 3.65791619 8.3058089 8.18197131 8.30580891h156.49740099a8.25583935 8.25583935 0 0 0 8.18197131-8.35505427V305.5446322c0-4.62254584 3.65864039-8.35505426 8.15734864-8.35505427H740.21485408c63.18251788 0 114.45055604 52.4788946 114.45055603 117.24378168v459.77783204c0 4.62254584 3.63329351 8.33043158 8.13272595 8.33043159h154.19807733c4.49870826 0 8.15734864-3.70788575 8.15734863-8.3065331v0.02534687z m-316.03497862-0.04924537a8.23121667 8.23121667 0 0 1-8.13272596 8.35505427H544.51307911a8.25583935 8.25583935 0 0 1-8.18197131-8.35505427V438.43540204c0-4.59792316 3.65791619-8.35505426 8.18197131-8.35505427H700.98513324c4.49870826 0 8.13272596 3.75713109 8.13272596 8.35505427v435.7996881-0.0238985m625.66806077 0a8.25583935 8.25583935 0 0 1-8.15734864 8.35505427H1170.20648677a8.28118623 8.28118623 0 0 1-8.23194086-8.35505427V149.78880835c0-4.62254584 3.68326307-8.35505426 8.23194086-8.35505426h156.42280876c4.52405512 0 8.15734864 3.73250842 8.15734864 8.35505427v724.42238329" fill="#bfbfbf" p-id="2397"></path></svg>