<?xml version="1.0" standalone="no"?><!DOCTYPE svg PUBLIC "-//W3C//DTD SVG 1.1//EN" "http://www.w3.org/Graphics/SVG/1.1/DTD/svg11.dtd"><svg t="1744018520899" class="icon" viewBox="0 0 1024 1024" version="1.1" xmlns="http://www.w3.org/2000/svg" p-id="2074" xmlns:xlink="http://www.w3.org/1999/xlink" width="200" height="200"><path d="M610.2153125 328.7140625v581.5378125c28.430625-7.273125 55.3846875-16.7625 81.6375-29.9071875V215.0646875a179.0765625 179.0765625 0 0 0-39.3609375 22.5965625c-27.691875 21.85875-42.24 50.289375-42.24 91.089375m-238.30125-91.089375a179.04 179.04 0 0 0-39.36-22.5965625v665.353125c25.4775 12.3703125 53.169375 22.5975 81.6 29.8715625V328.7140625c0-40.8-14.5471875-69.230625-42.24-91.089375" fill="#bfbfbf" p-id="2075"></path><path d="M675.089375 134.868125A402.72 402.72 0 0 0 512.628125 101.37875c-57.6 0-112.246875 11.630625-161.7975 32.7871875-8.011875 4.3575-18.24 11.668125-18.24 24.0375 0 21.8578125 29.908125 16.7625 67.790625 47.371875 34.966875 27.6928125 53.169375 67.0528125 53.169375 110.769375v601.18125a401.428125 401.428125 0 0 0 118.08 0v-601.18125c0-43.7165625 18.2034375-83.0765625 53.169375-110.769375 37.92-29.9071875 67.790625-25.4765625 67.790625-47.371875 0-11.668125-10.190625-19.68-17.50125-23.3353125" fill="#bfbfbf" p-id="2076"></path><path d="M512.22125 950.94125c-242.6578125 0-440.1225-196.8-440.1225-440.16A439.753125 439.753125 0 0 1 512.22125 70.62125c242.65875 0 440.16 196.7625 440.16 440.1234375 0 243.4340625-197.50125 440.1965625-440.1225 440.1965625m0-918.94125C246.929375 32 32 246.228125 32 511.52c0 265.25625 214.9659375 479.4834375 479.52 479.4834375 265.25625 0 479.4834375-214.966875 479.4834375-479.4834375C991.74125 246.228125 776.7753125 32 512.2221875 32" fill="#bfbfbf" p-id="2077"></path><path d="M102.33875 511.630625c0 145.7353125 75.7659375 274.0059375 190.891875 346.153125V543.7175c-46.6340625 1.44-64.09875 29.1328125-69.230625 40.8-4.3565625 8.7515625-7.2740625 18.2034375-15.2859375 18.2034375-13.846875 0-24.7753125-39.36-24.7753125-87.4340625 0-48.110625 10.929375-87.470625 24.7753125-87.470625 8.011875 0 10.929375 9.489375 15.2859375 18.24 5.131875 10.929375 22.5965625 39.36 69.230625 40.06125V164.7753125a409.66125 409.66125 0 0 0-190.891875 346.85625M855.828125 584.515625c-4.3940625 8.7515625-7.275 18.2034375-15.3234375 18.2034375-13.846875 0-24.73875-39.36-24.73875-87.4340625 0-48.110625 10.8928125-87.470625 24.73875-87.470625 8.049375 0 10.929375 9.489375 15.3234375 18.24 5.0953125 10.929375 21.8578125 37.8834375 66.313125 40.06125a408.8859375 408.8859375 0 0 0-189.489375-321.34125v693.009375A412.7259375 412.7259375 0 0 0 922.14125 543.715625c-45.193125 2.88-61.21875 29.8715625-66.313125 40.8" fill="#bfbfbf" p-id="2078"></path></svg>