<?xml version="1.0" standalone="no"?><!DOCTYPE svg PUBLIC "-//W3C//DTD SVG 1.1//EN" "http://www.w3.org/Graphics/SVG/1.1/DTD/svg11.dtd"><svg height="800" node-id="1" sillyvg="true" template-height="800" template-width="800" version="1.1" viewBox="0 0 800 800" width="800" xmlns="http://www.w3.org/2000/svg" xmlns:xlink="http://www.w3.org/1999/xlink"><defs node-id="89"><filter filterUnits="objectBoundingBox" height="79.21271" id="filter0_d" node-id="80" width="79.111694" x="472.873" y="114.203"><feFlood color-interpolation-filters="sRGB" flood-color="#000000" flood-opacity="0" result="BackgroundImageFix"></feFlood><feColorMatrix color-interpolation-filters="sRGB" in="SourceAlpha" result="result2" type="matrix" values="0 0 0 0 0 0 0 0 0 0 0 0 0 0 0 0 0 0 127 0"></feColorMatrix><feOffset color-interpolation-filters="sRGB" dx="-3" dy="3" in="result2" result="result3"></feOffset><feGaussianBlur color-interpolation-filters="sRGB" in="result3" result="result4" stdDeviation="4 4"></feGaussianBlur><feColorMatrix color-interpolation-filters="sRGB" in="result4" result="result5" type="matrix" values="0 0 0 0 0.100372 0 0 0 0 0.387639 0 0 0 0 0.687217 0 0 0 0.360741 0"></feColorMatrix><feBlend color-interpolation-filters="sRGB" in="result5" in2="BackgroundImageFix" mode="normal" result="effect1_dropShadow"></feBlend><feBlend color-interpolation-filters="sRGB" in="SourceGraphic" in2="effect1_dropShadow" mode="normal" result="shape"></feBlend></filter><mask height="647" id="mask0" maskUnits="userSpaceOnUse" node-id="3" width="647" x="84" y="106"><path d="M 407.70 752.50 L 421.10 752.20 L 434.30 751.40 L 447.30 750.10 L 460.10 748.30 L 472.70 746.00 L 485.30 743.10 L 497.70 739.80 L 509.80 736.00 L 521.70 731.80 L 533.30 727.20 L 544.90 722.00 L 556.10 716.50 L 567.00 710.50 L 577.70 704.20 L 588.20 697.40 L 598.40 690.20 L 608.20 682.70 L 617.80 674.80 L 627.00 666.60 L 636.00 658.00 L 644.60 649.00 L 652.80 639.80 L 660.70 630.20 L 668.20 620.40 L 675.40 610.20 L 682.10 599.70 L 688.50 589.00 L 694.50 578.10 L 700.00 566.90 L 705.10 555.30 L 709.80 543.70 L 714.00 531.80 L 717.80 519.70 L 721.10 507.30 L 724.00 494.70 L 726.30 482.10 L 728.10 469.30 L 729.40 456.30 L 730.20 443.10 L 730.50 429.70 L 730.20 416.20 L 729.40 403.00 L 728.10 390.00 L 726.30 377.20 L 724.00 364.60 L 721.10 352.00 L 717.80 339.70 L 714.00 327.60 L 709.80 315.70 L 705.10 304.00 L 700.00 292.50 L 694.50 281.30 L 688.50 270.30 L 682.10 259.60 L 675.40 249.20 L 668.20 239.00 L 660.70 229.10 L 652.80 219.60 L 644.60 210.30 L 636.00 201.40 L 627.00 192.80 L 617.80 184.50 L 608.20 176.70 L 598.40 169.10 L 588.20 162.00 L 577.70 155.20 L 567.00 148.80 L 556.10 142.90 L 544.90 137.30 L 533.30 132.20 L 521.70 127.50 L 509.80 123.30 L 497.70 119.50 L 485.30 116.20 L 472.70 113.40 L 460.10 111.10 L 447.30 109.20 L 434.30 107.90 L 421.10 107.10 L 407.70 106.80 L 394.20 107.10 L 381.00 107.90 L 368.00 109.20 L 355.20 111.10 L 342.60 113.40 L 330.00 116.20 L 317.70 119.50 L 305.60 123.30 L 293.70 127.50 L 282.00 132.20 L 270.50 137.30 L 259.30 142.90 L 248.30 148.80 L 237.60 155.20 L 227.20 162.00 L 217.00 169.10 L 207.10 176.70 L 197.60 184.50 L 188.30 192.80 L 179.40 201.40 L 170.80 210.30 L 162.50 219.60 L 154.70 229.10 L 147.10 239.00 L 140.00 249.20 L 133.20 259.60 L 126.80 270.30 L 120.90 281.30 L 115.30 292.50 L 110.20 304.00 L 105.50 315.70 L 101.30 327.60 L 97.50 339.70 L 94.20 352.00 L 91.40 364.60 L 89.00 377.20 L 87.20 390.00 L 85.90 403.00 L 85.10 416.20 L 84.80 429.70 L 85.10 443.10 L 85.90 456.30 L 87.20 469.30 L 89.00 482.10 L 91.40 494.70 L 94.20 507.30 L 97.50 519.70 L 101.30 531.80 L 105.50 543.70 L 110.20 555.30 L 115.30 566.90 L 120.90 578.10 L 126.80 589.00 L 133.20 599.70 L 140.00 610.20 L 147.10 620.40 L 154.70 630.20 L 162.50 639.80 L 170.80 649.00 L 179.40 658.00 L 188.30 666.60 L 197.60 674.80 L 207.10 682.70 L 217.00 690.20 L 227.20 697.40 L 237.60 704.20 L 248.30 710.50 L 259.30 716.50 L 270.50 722.00 L 282.00 727.20 L 293.70 731.80 L 305.60 736.00 L 317.70 739.80 L 330.00 743.10 L 342.60 746.00 L 355.20 748.30 L 368.00 750.10 L 381.00 751.40 L 394.20 752.20 L 407.70 752.50 Z" fill="#ffffff" fill-rule="nonzero" node-id="108" stroke="none" target-height="645.7" target-width="645.7" target-x="84.8" target-y="106.8"></path></mask><mask height="686" id="mask1" maskUnits="userSpaceOnUse" node-id="7" width="714" x="43" y="47"><path d="M 592.70 111.70 L 584.50 105.90 L 575.90 100.40 L 566.90 95.10 L 557.40 90.10 L 547.40 85.20 L 534.90 79.80 L 521.90 74.70 L 508.30 70.00 L 494.20 65.70 L 480.00 61.90 L 465.50 58.60 L 450.60 55.60 L 435.30 53.10 L 420.10 51.10 L 404.60 49.50 L 389.00 48.40 L 373.30 47.70 L 357.50 47.40 L 341.80 47.60 L 326.00 48.30 L 310.40 49.40 L 294.70 51.00 L 279.20 53.10 L 264.00 55.60 L 249.00 58.60 L 234.00 62.00 L 219.40 66.00 L 205.30 70.30 L 191.50 75.20 L 180.50 79.40 L 169.90 84.00 L 159.70 88.80 L 149.80 93.90 L 140.30 99.30 L 130.90 105.20 L 121.90 111.30 L 113.40 117.60 L 105.40 124.30 L 97.70 131.20 L 90.40 138.60 L 83.60 146.20 L 77.30 154.20 L 71.50 162.40 L 66.20 170.90 L 62.20 178.30 L 58.60 185.80 L 55.40 193.60 L 52.50 201.70 L 50.10 210.00 L 48.10 218.60 L 46.10 229.20 L 44.70 239.20 L 43.70 248.60 L 43.00 266.20 L 43.90 283.40 L 45.00 291.40 L 48.00 306.50 L 50.60 315.70 L 53.70 324.40 L 57.30 332.90 L 61.30 340.90 L 65.70 348.80 L 70.50 356.40 L 75.60 363.70 L 81.10 370.90 L 88.90 380.10 L 97.10 389.10 L 105.90 397.90 L 119.50 410.60 L 177.70 461.30 L 192.10 474.70 L 201.40 484.00 L 210.40 493.60 L 219.10 503.70 L 225.30 511.40 L 231.30 519.50 L 237.00 527.90 L 242.40 536.70 L 247.40 545.60 L 252.10 555.00 L 256.40 564.80 L 264.60 586.50 L 269.40 597.50 L 274.50 608.10 L 280.20 618.30 L 286.20 628.10 L 292.80 637.70 L 299.80 646.80 L 307.10 655.50 L 314.70 663.80 L 322.80 671.60 L 331.30 679.10 L 340.10 686.10 L 349.10 692.70 L 358.50 698.80 L 368.30 704.40 L 378.30 709.60 L 388.50 714.20 L 399.00 718.40 L 409.80 722.00 L 420.90 725.20 L 432.00 727.80 L 443.40 729.90 L 455.00 731.40 L 466.80 732.30 L 478.80 732.70 L 490.80 732.60 L 502.90 731.80 L 515.20 730.40 L 527.70 728.40 L 540.40 725.70 L 552.80 722.60 L 565.30 718.70 L 578.00 714.20 L 590.80 708.90 L 603.80 702.90 L 614.20 697.60 L 624.70 691.80 L 635.20 685.50 L 645.80 678.60 L 656.50 671.10 L 667.30 663.00 L 676.30 655.70 L 684.80 648.00 L 692.60 640.10 L 700.00 631.80 L 706.80 623.30 L 713.20 614.40 L 719.20 605.30 L 724.60 595.90 L 729.60 586.20 L 734.20 576.30 L 738.30 566.20 L 742.00 555.90 L 745.20 545.40 L 748.10 534.70 L 750.50 523.70 L 752.90 510.00 L 754.70 496.10 L 756.00 481.80 L 756.60 467.40 L 756.60 453.00 L 756.10 438.40 L 755.00 423.80 L 753.40 409.00 L 751.30 394.30 L 748.70 379.60 L 745.60 364.90 L 742.00 350.20 L 737.90 335.60 L 733.40 321.20 L 728.50 306.90 L 723.10 292.80 L 717.30 278.80 L 711.20 265.10 L 704.70 251.60 L 697.80 238.50 L 690.60 225.50 L 683.00 212.90 L 675.20 200.80 L 667.10 189.10 L 658.50 177.50 L 649.80 166.50 L 640.80 156.10 L 631.70 146.20 L 622.10 136.60 L 612.40 127.60 L 602.60 119.30 L 592.70 111.70 Z" fill="#ffffff" fill-rule="nonzero" node-id="112" stroke="none" target-height="685.3" target-width="713.6" target-x="43" target-y="47.4"></path></mask><mask height="79" id="mask2" maskUnits="userSpaceOnUse" node-id="61" width="81" x="247" y="220"><path d="M 270.60 253.90 L 268.50 251.60 L 267.20 249.10 L 267.00 247.70 L 267.20 246.40 L 267.90 245.30 L 269.00 244.40 L 270.10 244.00 L 271.20 244.20 L 272.50 244.80 L 274.00 246.20 L 279.20 243.60 L 283.60 240.90 L 287.10 238.20 L 289.90 235.50 L 292.10 232.70 L 293.70 229.90 L 294.80 227.00 L 295.50 224.00 L 295.60 220.90 L 297.00 221.90 L 298.50 223.90 L 300.10 227.10 L 301.70 232.00 L 303.20 239.10 L 308.30 244.40 L 310.40 247.00 L 309.10 248.50 L 306.50 250.50 L 307.10 261.40 L 306.90 263.40 L 305.50 266.30 L 303.50 268.00 L 301.20 269.00 L 298.60 269.70 L 295.40 270.00 L 291.70 269.80 L 294.20 285.70 L 267.90 285.70 L 270.60 253.90 Z" fill="#ffffff" fill-rule="nonzero" node-id="116" stroke="none" target-height="64.80002" target-width="43.399994" target-x="267" target-y="220.9"></path></mask><mask height="153" id="mask3" maskUnits="userSpaceOnUse" node-id="71" width="201" x="215" y="275"><path d="M 391.30 275.20 L 415.20 279.30 L 413.50 299.40 L 411.70 315.10 L 409.70 327.10 L 407.70 336.00 L 405.80 342.40 L 403.80 346.80 L 402.00 349.70 L 400.30 351.50 L 398.70 352.40 L 397.00 352.70 L 392.40 352.40 L 384.70 351.30 L 372.90 349.10 L 355.70 345.20 L 331.70 339.10 L 333.30 342.20 L 334.30 345.30 L 334.80 348.50 L 334.60 352.00 L 333.90 355.60 L 332.40 359.60 L 330.10 363.90 L 325.80 370.20 L 325.00 372.70 L 324.40 376.40 L 324.20 381.70 L 324.60 388.90 L 325.80 398.50 L 328.00 411.10 L 331.50 427.30 L 260.00 427.50 L 260.00 410.90 L 250.20 427.50 L 238.10 427.30 L 230.30 416.20 L 224.60 407.00 L 220.50 399.60 L 217.70 393.70 L 216.00 389.00 L 215.20 385.30 L 215.10 382.40 L 215.40 380.10 L 218.10 372.20 L 229.30 344.40 L 242.80 313.70 L 248.40 302.00 L 252.20 295.40 L 254.80 292.40 L 257.60 290.00 L 260.50 288.10 L 263.50 286.70 L 266.80 285.70 L 288.60 285.10 L 295.30 285.70 L 299.80 287.40 L 305.40 290.10 L 309.40 290.20 L 314.50 290.90 L 320.70 292.50 L 328.20 295.00 L 337.50 298.70 L 348.50 303.90 L 361.70 310.70 L 381.70 320.20 L 391.30 275.20 Z M 244.50 383.60 L 248.80 397.50 L 251.50 387.90 L 252.90 381.20 L 253.50 376.60 L 253.50 372.10 L 253.10 367.60 L 252.10 363.10 L 244.50 383.60 Z" fill="#ffffff" fill-rule="nonzero" node-id="120" stroke="none" target-height="152.29999" target-width="200.1" target-x="215.1" target-y="275.2"></path></mask></defs><path d="M 800.00 0.00 L 0.00 0.00 L 0.00 800.00 L 800.00 800.00 L 800.00 0.00 Z" fill="#ffffff" fill-rule="nonzero" node-id="124" stroke="none" target-height="800" target-width="800" target-x="0" target-y="0"></path><g node-id="266"><path d="M 407.70 752.50 L 421.10 752.20 L 434.30 751.40 L 447.30 750.10 L 460.10 748.30 L 472.70 746.00 L 485.30 743.10 L 497.70 739.80 L 509.80 736.00 L 521.70 731.80 L 533.30 727.20 L 544.90 722.00 L 556.10 716.50 L 567.00 710.50 L 577.70 704.20 L 588.20 697.40 L 598.40 690.20 L 608.20 682.70 L 617.80 674.80 L 627.00 666.60 L 636.00 658.00 L 644.60 649.00 L 652.80 639.80 L 660.70 630.20 L 668.20 620.40 L 675.40 610.20 L 682.10 599.70 L 688.50 589.00 L 694.50 578.10 L 700.00 566.90 L 705.10 555.30 L 709.80 543.70 L 714.00 531.80 L 717.80 519.70 L 721.10 507.30 L 724.00 494.70 L 726.30 482.10 L 728.10 469.30 L 729.40 456.30 L 730.20 443.10 L 730.50 429.70 L 730.20 416.20 L 729.40 403.00 L 728.10 390.00 L 726.30 377.20 L 724.00 364.60 L 721.10 352.00 L 717.80 339.70 L 714.00 327.60 L 709.80 315.70 L 705.10 304.00 L 700.00 292.50 L 694.50 281.30 L 688.50 270.30 L 682.10 259.60 L 675.40 249.20 L 668.20 239.00 L 660.70 229.10 L 652.80 219.60 L 644.60 210.30 L 636.00 201.40 L 627.00 192.80 L 617.80 184.50 L 608.20 176.70 L 598.40 169.10 L 588.20 162.00 L 577.70 155.20 L 567.00 148.80 L 556.10 142.90 L 544.90 137.30 L 533.30 132.20 L 521.70 127.50 L 509.80 123.30 L 497.70 119.50 L 485.30 116.20 L 472.70 113.40 L 460.10 111.10 L 447.30 109.20 L 434.30 107.90 L 421.10 107.10 L 407.70 106.80 L 394.20 107.10 L 381.00 107.90 L 368.00 109.20 L 355.20 111.10 L 342.60 113.40 L 330.00 116.20 L 317.70 119.50 L 305.60 123.30 L 293.70 127.50 L 282.00 132.20 L 270.50 137.30 L 259.30 142.90 L 248.30 148.80 L 237.60 155.20 L 227.20 162.00 L 217.00 169.10 L 207.10 176.70 L 197.60 184.50 L 188.30 192.80 L 179.40 201.40 L 170.80 210.30 L 162.50 219.60 L 154.70 229.10 L 147.10 239.00 L 140.00 249.20 L 133.20 259.60 L 126.80 270.30 L 120.90 281.30 L 115.30 292.50 L 110.20 304.00 L 105.50 315.70 L 101.30 327.60 L 97.50 339.70 L 94.20 352.00 L 91.40 364.60 L 89.00 377.20 L 87.20 390.00 L 85.90 403.00 L 85.10 416.20 L 84.80 429.70 L 85.10 443.10 L 85.90 456.30 L 87.20 469.30 L 89.00 482.10 L 91.40 494.70 L 94.20 507.30 L 97.50 519.70 L 101.30 531.80 L 105.50 543.70 L 110.20 555.30 L 115.30 566.90 L 120.90 578.10 L 126.80 589.00 L 133.20 599.70 L 140.00 610.20 L 147.10 620.40 L 154.70 630.20 L 162.50 639.80 L 170.80 649.00 L 179.40 658.00 L 188.30 666.60 L 197.60 674.80 L 207.10 682.70 L 217.00 690.20 L 227.20 697.40 L 237.60 704.20 L 248.30 710.50 L 259.30 716.50 L 270.50 722.00 L 282.00 727.20 L 293.70 731.80 L 305.60 736.00 L 317.70 739.80 L 330.00 743.10 L 342.60 746.00 L 355.20 748.30 L 368.00 750.10 L 381.00 751.40 L 394.20 752.20 L 407.70 752.50 Z" fill="#e7eeff" fill-rule="nonzero" group-id="1" node-id="128" stroke="none" target-height="645.7" target-width="645.7" target-x="84.8" target-y="106.8"></path></g><g node-id="267"><path d="M 592.70 111.70 L 584.50 105.90 L 575.90 100.40 L 566.90 95.10 L 557.40 90.10 L 547.40 85.20 L 534.90 79.80 L 521.90 74.70 L 508.30 70.00 L 494.20 65.70 L 480.00 61.90 L 465.50 58.60 L 450.60 55.60 L 435.30 53.10 L 420.10 51.10 L 404.60 49.50 L 389.00 48.40 L 373.30 47.70 L 357.50 47.40 L 341.80 47.60 L 326.00 48.30 L 310.40 49.40 L 294.70 51.00 L 279.20 53.10 L 264.00 55.60 L 249.00 58.60 L 234.00 62.00 L 219.40 66.00 L 205.30 70.30 L 191.50 75.20 L 180.50 79.40 L 169.90 84.00 L 159.70 88.80 L 149.80 93.90 L 140.30 99.30 L 130.90 105.20 L 121.90 111.30 L 113.40 117.60 L 105.40 124.30 L 97.70 131.20 L 90.40 138.60 L 83.60 146.20 L 77.30 154.20 L 71.50 162.40 L 66.20 170.90 L 62.20 178.30 L 58.60 185.80 L 55.40 193.60 L 52.50 201.70 L 50.10 210.00 L 48.10 218.60 L 46.10 229.20 L 44.70 239.20 L 43.70 248.60 L 43.00 266.20 L 43.90 283.40 L 45.00 291.40 L 48.00 306.50 L 50.60 315.70 L 53.70 324.40 L 57.30 332.90 L 61.30 340.90 L 65.70 348.80 L 70.50 356.40 L 75.60 363.70 L 81.10 370.90 L 88.90 380.10 L 97.10 389.10 L 105.90 397.90 L 119.50 410.60 L 177.70 461.30 L 192.10 474.70 L 201.40 484.00 L 210.40 493.60 L 219.10 503.70 L 225.30 511.40 L 231.30 519.50 L 237.00 527.90 L 242.40 536.70 L 247.40 545.60 L 252.10 555.00 L 256.40 564.80 L 264.60 586.50 L 269.40 597.50 L 274.50 608.10 L 280.20 618.30 L 286.20 628.10 L 292.80 637.70 L 299.80 646.80 L 307.10 655.50 L 314.70 663.80 L 322.80 671.60 L 331.30 679.10 L 340.10 686.10 L 349.10 692.70 L 358.50 698.80 L 368.30 704.40 L 378.30 709.60 L 388.50 714.20 L 399.00 718.40 L 409.80 722.00 L 420.90 725.20 L 432.00 727.80 L 443.40 729.90 L 455.00 731.40 L 466.80 732.30 L 478.80 732.70 L 490.80 732.60 L 502.90 731.80 L 515.20 730.40 L 527.70 728.40 L 540.40 725.70 L 552.80 722.60 L 565.30 718.70 L 578.00 714.20 L 590.80 708.90 L 603.80 702.90 L 614.20 697.60 L 624.70 691.80 L 635.20 685.50 L 645.80 678.60 L 656.50 671.10 L 667.30 663.00 L 676.30 655.70 L 684.80 648.00 L 692.60 640.10 L 700.00 631.80 L 706.80 623.30 L 713.20 614.40 L 719.20 605.30 L 724.60 595.90 L 729.60 586.20 L 734.20 576.30 L 738.30 566.20 L 742.00 555.90 L 745.20 545.40 L 748.10 534.70 L 750.50 523.70 L 752.90 510.00 L 754.70 496.10 L 756.00 481.80 L 756.60 467.40 L 756.60 453.00 L 756.10 438.40 L 755.00 423.80 L 753.40 409.00 L 751.30 394.30 L 748.70 379.60 L 745.60 364.90 L 742.00 350.20 L 737.90 335.60 L 733.40 321.20 L 728.50 306.90 L 723.10 292.80 L 717.30 278.80 L 711.20 265.10 L 704.70 251.60 L 697.80 238.50 L 690.60 225.50 L 683.00 212.90 L 675.20 200.80 L 667.10 189.10 L 658.50 177.50 L 649.80 166.50 L 640.80 156.10 L 631.70 146.20 L 622.10 136.60 L 612.40 127.60 L 602.60 119.30 L 592.70 111.70 Z" fill="#f4f7ff" fill-rule="nonzero" group-id="2" node-id="133" stroke="none" target-height="685.3" target-width="713.6" target-x="43" target-y="47.4"></path></g><path d="M 293.90 67.70 L 571.10 67.70 L 572.90 67.90 L 576.10 69.10 L 578.70 71.30 L 579.60 72.60 L 580.80 75.80 L 581.00 77.60 L 580.70 512.10 L 580.10 515.60 L 579.40 517.10 L 577.80 519.10 L 575.80 520.60 L 574.30 521.40 L 570.80 522.00 L 293.90 522.00 L 292.10 521.80 L 288.90 520.60 L 286.90 519.10 L 285.40 517.10 L 284.20 513.90 L 284.00 512.10 L 284.00 77.60 L 284.60 74.20 L 285.40 72.70 L 286.90 70.60 L 288.90 69.10 L 290.40 68.40 L 293.90 67.70 Z" fill="#849dff" fill-rule="evenodd" node-id="136" stroke="none" target-height="454.3" target-width="297" target-x="284" target-y="67.7"></path><path d="M 308.20 90.30 L 557.60 90.30 L 560.00 90.60 L 562.10 91.50 L 563.90 92.90 L 565.30 94.70 L 566.20 96.80 L 566.60 99.20 L 566.30 489.80 L 566.00 492.20 L 565.10 494.30 L 563.70 496.10 L 561.90 497.50 L 559.80 498.40 L 557.40 498.70 L 308.20 498.70 L 305.80 498.40 L 303.70 497.50 L 301.90 496.10 L 300.50 494.30 L 299.60 492.20 L 299.30 489.80 L 299.30 99.20 L 299.60 96.80 L 300.50 94.70 L 301.90 92.90 L 303.70 91.50 L 305.80 90.60 L 308.20 90.30 Z" fill="#b1c1ff" fill-rule="evenodd" node-id="138" stroke="none" target-height="408.40002" target-width="267.3" target-x="299.3" target-y="90.3"></path><path d="M 432.90 80.60 L 435.80 80.40 L 441.20 78.90 L 443.60 77.70 L 446.60 75.60 L 449.20 73.00 L 451.30 70.10 L 452.50 67.60 L 454.00 62.30 L 454.20 59.30 L 454.00 56.40 L 452.50 51.00 L 451.30 48.60 L 449.20 45.60 L 446.60 43.00 L 443.60 40.90 L 441.20 39.70 L 435.80 38.20 L 432.90 38.00 L 430.00 38.20 L 424.60 39.70 L 422.20 40.90 L 419.20 43.00 L 416.60 45.60 L 414.50 48.60 L 413.30 51.00 L 411.80 56.40 L 411.60 59.30 L 411.80 62.30 L 413.30 67.60 L 414.50 70.10 L 416.60 73.00 L 419.20 75.60 L 422.20 77.70 L 424.60 78.90 L 430.00 80.40 L 432.90 80.60 Z" fill="#5465a6" fill-rule="nonzero" node-id="140" stroke="none" target-height="42.6" target-width="42.600006" target-x="411.6" target-y="38"></path><path d="M 432.90 72.60 L 435.30 72.30 L 437.50 71.70 L 441.40 69.40 L 444.30 66.00 L 445.30 63.90 L 445.90 61.70 L 446.10 59.30 L 445.90 56.90 L 445.30 54.70 L 443.00 50.70 L 439.60 47.90 L 437.50 46.90 L 435.30 46.30 L 432.90 46.00 L 430.50 46.30 L 428.30 46.90 L 424.40 49.20 L 421.50 52.60 L 420.50 54.70 L 419.90 56.90 L 419.70 59.30 L 419.90 61.70 L 420.50 63.90 L 422.80 67.90 L 426.20 70.80 L 428.30 71.70 L 430.50 72.30 L 432.90 72.60 Z" fill="#f4f7ff" fill-rule="nonzero" node-id="142" stroke="none" target-height="26.599998" target-width="26.399994" target-x="419.7" target-y="46"></path><path d="M 490.70 58.90 L 374.30 59.10 L 373.30 60.10 L 373.10 60.90 L 373.10 96.30 L 373.30 97.10 L 374.30 98.10 L 491.50 98.10 L 492.50 97.10 L 492.70 96.30 L 492.70 60.90 L 492.10 59.50 L 490.70 58.90 Z" fill="#6073be" fill-rule="nonzero" node-id="144" stroke="none" target-height="39.199997" target-width="119.600006" target-x="373.1" target-y="58.9"></path><path d="M 532.00 206.00 L 499.10 206.00 L 499.10 239.00 L 532.00 239.00 L 532.00 206.00 Z" fill="none" node-id="146" stroke="#e7eeff" stroke-linecap="butt" stroke-width="2" target-height="33" target-width="32.899994" target-x="499.1" target-y="206"></path><path d="M 506.30 223.80 L 513.50 228.70 L 525.80 214.10" fill="none" node-id="148" stroke="#ffffff" stroke-linecap="butt" stroke-width="5.376" target-height="14.599991" target-width="19.5" target-x="506.3" target-y="214.1"></path><path d="M 506.30 296.20 L 513.50 301.00 L 525.80 286.40" fill="none" node-id="150" stroke="#ffffff" stroke-linecap="butt" stroke-width="5.376" target-height="14.600006" target-width="19.5" target-x="506.3" target-y="286.4"></path><path d="M 506.30 369.30 L 513.50 374.20 L 525.80 359.60" fill="none" node-id="152" stroke="#ffffff" stroke-linecap="butt" stroke-width="5.376" target-height="14.600006" target-width="19.5" target-x="506.3" target-y="359.6"></path><path d="M 506.30 441.70 L 513.50 446.50 L 525.80 432.00" fill="none" node-id="154" stroke="#ffffff" stroke-linecap="butt" stroke-width="5.376" target-height="14.5" target-width="19.5" target-x="506.3" target-y="432"></path><path d="M 532.00 278.40 L 499.10 278.40 L 499.10 311.40 L 532.00 311.40 L 532.00 278.40 Z" fill="none" node-id="156" stroke="#e7eeff" stroke-linecap="butt" stroke-width="2" target-height="33" target-width="32.899994" target-x="499.1" target-y="278.4"></path><path d="M 532.00 350.80 L 499.10 350.80 L 499.10 383.70 L 532.00 383.70 L 532.00 350.80 Z" fill="none" node-id="158" stroke="#e7eeff" stroke-linecap="butt" stroke-width="2" target-height="32.900024" target-width="32.899994" target-x="499.1" target-y="350.8"></path><path d="M 532.00 423.10 L 499.10 423.10 L 499.10 456.10 L 532.00 456.10 L 532.00 423.10 Z" fill="none" node-id="160" stroke="#e7eeff" stroke-linecap="butt" stroke-width="2" target-height="33" target-width="32.899994" target-x="499.1" target-y="423.1"></path><path d="M 327.20 134.30 L 464.30 134.30" fill="none" node-id="162" stroke="#e7eeff" stroke-linecap="butt" stroke-width="2" target-height="0" target-width="137.09998" target-x="327.2" target-y="134.3"></path><path d="M 327.20 150.40 L 464.30 150.40" fill="none" node-id="164" stroke="#e7eeff" stroke-linecap="butt" stroke-width="2" target-height="0" target-width="137.09998" target-x="327.2" target-y="150.4"></path><path d="M 327.20 166.50 L 464.30 166.50" fill="none" node-id="166" stroke="#e7eeff" stroke-linecap="butt" stroke-width="2" target-height="0" target-width="137.09998" target-x="327.2" target-y="166.5"></path><path d="M 327.20 206.70 L 464.30 206.70" fill="none" node-id="168" stroke="#e7eeff" stroke-linecap="butt" stroke-width="2" target-height="0" target-width="137.09998" target-x="327.2" target-y="206.7"></path><path d="M 327.20 222.80 L 464.30 222.80" fill="none" node-id="170" stroke="#e7eeff" stroke-linecap="butt" stroke-width="2" target-height="0" target-width="137.09998" target-x="327.2" target-y="222.8"></path><path d="M 327.20 238.90 L 464.30 238.90" fill="none" node-id="172" stroke="#e7eeff" stroke-linecap="butt" stroke-width="2" target-height="0" target-width="137.09998" target-x="327.2" target-y="238.9"></path><path d="M 327.20 279.10 L 464.30 279.10" fill="none" node-id="174" stroke="#e7eeff" stroke-linecap="butt" stroke-width="2" target-height="0" target-width="137.09998" target-x="327.2" target-y="279.1"></path><path d="M 327.20 295.10 L 464.30 295.10" fill="none" node-id="176" stroke="#e7eeff" stroke-linecap="butt" stroke-width="2" target-height="0" target-width="137.09998" target-x="327.2" target-y="295.1"></path><path d="M 327.20 311.20 L 464.30 311.20" fill="none" node-id="178" stroke="#e7eeff" stroke-linecap="butt" stroke-width="2" target-height="0" target-width="137.09998" target-x="327.2" target-y="311.2"></path><path d="M 327.20 351.40 L 464.30 351.40" fill="none" node-id="180" stroke="#e7eeff" stroke-linecap="butt" stroke-width="2" target-height="0" target-width="137.09998" target-x="327.2" target-y="351.4"></path><path d="M 327.20 367.50 L 464.30 367.50" fill="none" node-id="182" stroke="#e7eeff" stroke-linecap="butt" stroke-width="2" target-height="0" target-width="137.09998" target-x="327.2" target-y="367.5"></path><path d="M 327.20 383.60 L 464.30 383.60" fill="none" node-id="184" stroke="#e7eeff" stroke-linecap="butt" stroke-width="2" target-height="0" target-width="137.09998" target-x="327.2" target-y="383.6"></path><path d="M 327.20 423.80 L 464.30 423.80" fill="none" node-id="186" stroke="#e7eeff" stroke-linecap="butt" stroke-width="2" target-height="0" target-width="137.09998" target-x="327.2" target-y="423.8"></path><path d="M 327.20 439.90 L 464.30 439.90" fill="none" node-id="188" stroke="#e7eeff" stroke-linecap="butt" stroke-width="2" target-height="0" target-width="137.09998" target-x="327.2" target-y="439.9"></path><path d="M 327.20 455.90 L 464.30 455.90" fill="none" node-id="190" stroke="#e7eeff" stroke-linecap="butt" stroke-width="2" target-height="0" target-width="137.09998" target-x="327.2" target-y="455.9"></path><g node-id="268"><path d="M 515.40 182.40 L 519.80 182.10 L 523.80 181.30 L 527.70 179.90 L 531.40 178.10 L 534.70 175.80 L 537.70 173.20 L 540.40 170.10 L 542.70 166.80 L 544.50 163.10 L 545.90 159.20 L 546.70 155.20 L 547.00 150.80 L 546.70 146.50 L 545.90 142.40 L 544.50 138.50 L 542.70 134.80 L 540.40 131.50 L 537.70 128.50 L 534.70 125.80 L 531.40 123.50 L 527.70 121.70 L 523.80 120.30 L 519.80 119.50 L 515.40 119.20 L 511.10 119.50 L 507.00 120.30 L 503.10 121.70 L 499.50 123.50 L 496.10 125.80 L 493.10 128.50 L 490.40 131.50 L 488.20 134.80 L 486.40 138.50 L 485.00 142.40 L 484.20 146.50 L 483.90 150.80 L 484.20 155.20 L 485.00 159.20 L 486.40 163.10 L 488.20 166.80 L 490.40 170.10 L 493.10 173.20 L 496.10 175.80 L 499.50 178.10 L 503.10 179.90 L 507.00 181.30 L 511.10 182.10 L 515.40 182.40 Z" fill="#000000" fill-rule="nonzero" filter="url(#filter0_d)" group-id="3" node-id="194" stroke="none" target-height="63.199997" target-width="63.100006" target-x="483.9" target-y="119.2"></path></g><path d="M 515.40 182.40 L 519.80 182.10 L 523.80 181.30 L 527.70 179.90 L 531.40 178.10 L 534.70 175.80 L 537.70 173.20 L 540.40 170.10 L 542.70 166.80 L 544.50 163.10 L 545.90 159.20 L 546.70 155.20 L 547.00 150.80 L 546.70 146.50 L 545.90 142.40 L 544.50 138.50 L 542.70 134.80 L 540.40 131.50 L 537.70 128.50 L 534.70 125.80 L 531.40 123.50 L 527.70 121.70 L 523.80 120.30 L 519.80 119.50 L 515.40 119.20 L 511.10 119.50 L 507.00 120.30 L 503.10 121.70 L 499.50 123.50 L 496.10 125.80 L 493.10 128.50 L 490.40 131.50 L 488.20 134.80 L 486.40 138.50 L 485.00 142.40 L 484.20 146.50 L 483.90 150.80 L 484.20 155.20 L 485.00 159.20 L 486.40 163.10 L 488.20 166.80 L 490.40 170.10 L 493.10 173.20 L 496.10 175.80 L 499.50 178.10 L 503.10 179.90 L 507.00 181.30 L 511.10 182.10 L 515.40 182.40 Z" fill="#ffffff" fill-rule="nonzero" node-id="197" stroke="none" target-height="63.199997" target-width="63.100006" target-x="483.9" target-y="119.2"></path><path d="M 515.70 170.50 L 519.20 170.20 L 522.50 169.30 L 525.50 167.90 L 528.20 165.90 L 530.50 163.60 L 532.50 160.90 L 533.90 157.90 L 534.80 154.60 L 535.10 151.10 L 534.80 147.50 L 533.90 144.30 L 532.50 141.30 L 530.50 138.50 L 528.20 136.20 L 525.50 134.30 L 522.50 132.80 L 519.20 132.00 L 515.70 131.60 L 512.20 132.00 L 508.90 132.80 L 505.90 134.30 L 503.20 136.20 L 500.90 138.50 L 498.90 141.30 L 497.50 144.30 L 496.60 147.50 L 496.30 151.10 L 496.60 154.60 L 497.50 157.90 L 498.90 160.90 L 500.90 163.60 L 503.20 165.90 L 505.90 167.90 L 508.90 169.30 L 512.20 170.20 L 515.70 170.50 Z" fill="#13bb84" fill-rule="nonzero" node-id="199" stroke="none" target-height="38.899994" target-width="38.799988" target-x="496.3" target-y="131.6"></path><path d="M 506.00 153.20 L 513.20 158.10 L 525.40 143.50" fill="none" node-id="201" stroke="#ffffff" stroke-linecap="butt" stroke-width="5.376" target-height="14.600006" target-width="19.400024" target-x="506" target-y="143.5"></path><path d="M 148.00 696.30 L 200.90 696.30 L 200.90 724.10 L 200.60 727.80 L 199.90 731.20 L 198.80 734.40 L 197.30 737.50 L 195.40 740.30 L 193.10 742.90 L 190.60 745.10 L 187.80 747.00 L 184.70 748.50 L 181.50 749.70 L 178.10 750.30 L 174.40 750.60 L 170.80 750.30 L 167.40 749.70 L 164.10 748.50 L 161.10 747.00 L 158.30 745.10 L 155.70 742.90 L 153.50 740.30 L 151.60 737.50 L 150.00 734.40 L 148.90 731.20 L 148.20 727.80 L 148.00 724.10 L 148.00 696.30 Z" fill="#ffffff" fill-rule="evenodd" node-id="203" stroke="#849dff" stroke-linecap="butt" stroke-width="1.43" target-height="54.299988" target-width="52.899994" target-x="148" target-y="696.3"></path><path d="M 174.40 697.70 L 193.40 697.00 L 199.70 696.20 L 200.90 695.50 L 199.70 694.90 L 193.40 694.10 L 174.40 693.40 L 155.40 694.10 L 149.10 694.90 L 148.00 695.50 L 149.10 696.20 L 155.40 697.00 L 174.40 697.70 Z" fill="#849dff" fill-rule="nonzero" node-id="205" stroke="none" target-height="4.299988" target-width="52.899994" target-x="148" target-y="693.4"></path><path d="M 138.30 489.20 L 137.30 492.30 L 136.80 496.00 L 136.80 500.40 L 137.40 505.50 L 138.80 511.70 L 141.00 518.90 L 144.30 527.30 L 151.30 542.80 L 154.70 552.10 L 156.40 558.60 L 157.40 564.20 L 159.80 579.70 L 162.20 588.30 L 165.70 596.10 L 167.90 600.00 L 174.70 609.60 L 176.20 589.10 L 177.90 571.30 L 182.20 539.00 L 182.00 535.10 L 181.30 531.20 L 180.00 527.20 L 178.00 523.10 L 175.30 518.90 L 171.80 514.50 L 167.40 509.90 L 162.00 505.00 L 155.50 500.00 L 147.60 494.70 L 138.30 489.20 Z" fill="#b1c1ff" fill-rule="evenodd" node-id="207" stroke="none" target-height="120.39996" target-width="45.399994" target-x="136.8" target-y="489.2"></path><path d="M 92.30 567.70 L 94.20 573.10 L 96.60 577.90 L 99.50 582.40 L 102.80 586.40 L 106.50 590.10 L 110.80 593.30 L 115.60 596.30 L 121.10 598.90 L 133.90 603.50 L 139.90 606.30 L 145.00 609.30 L 150.00 612.80 L 154.10 616.20 L 157.60 619.70 L 163.30 626.80 L 166.50 633.10 L 167.50 637.40 L 168.30 631.40 L 168.60 625.90 L 168.30 620.90 L 167.40 616.30 L 166.10 612.00 L 164.30 608.10 L 162.00 604.40 L 159.20 601.00 L 155.80 597.80 L 151.80 594.90 L 147.20 592.10 L 120.30 580.60 L 104.10 573.40 L 92.30 567.70 Z" fill="#b1c1ff" fill-rule="evenodd" node-id="209" stroke="none" target-height="69.70001" target-width="76.3" target-x="92.3" target-y="567.7"></path><path d="M 246.20 531.30 L 243.80 539.30 L 241.30 546.40 L 238.60 552.60 L 235.70 557.90 L 232.70 562.60 L 229.60 566.50 L 226.30 569.90 L 208.80 584.00 L 203.40 589.90 L 201.20 593.20 L 199.50 596.70 L 198.20 600.70 L 197.70 603.70 L 197.40 610.80 L 197.80 614.90 L 200.70 610.60 L 203.90 606.70 L 207.40 603.20 L 211.30 600.10 L 215.50 597.30 L 220.10 594.90 L 229.60 591.10 L 237.70 586.50 L 244.80 580.90 L 250.40 574.50 L 252.60 571.20 L 254.40 567.90 L 255.70 564.40 L 256.50 561.10 L 256.80 557.80 L 256.50 553.70 L 255.70 549.50 L 254.30 545.20 L 252.30 540.80 L 249.60 536.10 L 246.20 531.30 Z" fill="#b1c1ff" fill-rule="evenodd" node-id="211" stroke="none" target-height="83.60004" target-width="59.399994" target-x="197.4" target-y="531.3"></path><path d="M 138.30 489.80 L 146.90 498.00 L 154.10 505.70 L 159.90 512.70 L 164.60 519.20 L 168.20 525.10 L 170.90 530.70 L 172.80 535.80 L 174.00 540.60 L 174.50 545.10 L 174.40 549.30 L 172.70 567.40 L 171.80 584.60 L 172.30 595.70 L 174.10 606.40 L 175.60 611.60 L 179.50 622.10 L 180.80 627.20 L 181.50 632.20 L 181.80 637.30 L 181.10 647.00 L 179.80 653.90 L 178.10 660.10 L 172.80 675.70 L 171.80 680.70 L 171.40 685.80 L 171.50 690.90 L 172.30 696.30" fill="none" node-id="213" stroke="#849dff" stroke-linecap="butt" stroke-width="1.716" target-height="206.5" target-width="43.5" target-x="138.3" target-y="489.8"></path><path d="M 92.30 567.70 L 94.90 571.40 L 98.30 575.20 L 102.70 579.20 L 108.30 583.40 L 115.00 587.80 L 123.30 592.30 L 140.90 600.70 L 147.20 604.10 L 155.70 610.00 L 158.70 612.60 L 163.00 617.70 L 166.00 623.40 L 167.50 629.60 L 167.80 633.90 L 167.80 638.80 L 165.60 659.00 L 164.90 671.00 L 165.20 676.60 L 166.10 682.50 L 167.60 688.40 L 170.00 695.50" fill="none" node-id="215" stroke="#849dff" stroke-linecap="butt" stroke-width="1.716" target-height="127.79999" target-width="77.7" target-x="92.3" target-y="567.7"></path><path d="M 178.10 695.50 L 177.40 691.50 L 177.30 687.60 L 177.80 683.80 L 179.00 680.20 L 180.80 676.50 L 183.30 672.90 L 188.70 666.80 L 190.50 664.00 L 192.90 657.40 L 194.10 650.00 L 195.50 626.60 L 196.30 621.20 L 197.50 616.40 L 201.80 604.80 L 203.50 601.60 L 205.50 598.60 L 208.30 595.50 L 211.50 592.50 L 221.10 585.70 L 232.00 578.90 L 235.60 576.00 L 238.70 572.80 L 241.30 569.30 L 243.50 565.50 L 245.20 561.40 L 246.60 556.90 L 247.40 552.00 L 247.90 546.70 L 247.70 540.80 L 247.10 534.30" fill="none" node-id="217" stroke="#849dff" stroke-linecap="butt" stroke-width="1.716" target-height="161.20001" target-width="70.59999" target-x="177.3" target-y="534.3"></path><path d="M 396.10 276.60 L 397.30 270.50 L 397.60 267.10 L 397.40 265.40 L 395.70 260.10 L 395.30 256.90 L 395.30 253.40 L 396.10 248.40 L 395.80 245.50 L 395.10 243.00 L 397.20 242.90 L 398.70 243.20 L 399.70 244.00 L 401.80 234.00 L 402.70 227.20 L 402.90 219.90 L 403.30 218.50 L 404.00 217.60 L 405.50 217.60 L 406.60 218.80 L 407.50 223.30 L 407.70 229.90 L 407.50 233.50 L 408.90 232.80 L 410.30 232.70 L 411.70 233.10 L 413.30 234.20 L 414.70 234.20 L 415.90 234.60 L 417.00 235.50 L 418.00 236.90 L 419.80 237.50 L 421.10 239.60 L 421.40 241.30 L 421.40 243.60 L 420.90 248.80 L 419.60 253.40 L 413.30 267.10 L 412.20 273.40 L 411.80 281.40 L 396.10 276.60 Z" fill="#ffae9c" fill-rule="evenodd" node-id="219" stroke="none" target-height="63.799988" target-width="26.299988" target-x="395.1" target-y="217.6"></path><path d="M 324.90 552.80 L 324.90 519.00 L 286.80 517.30 L 290.60 557.50 L 288.30 563.00 L 286.40 568.60 L 285.20 574.30 L 284.40 580.10 L 284.10 585.90 L 286.80 620.60 L 288.50 664.60 L 289.00 685.60 L 289.00 703.00 L 288.40 714.50 L 286.70 717.60 L 285.80 720.30 L 285.50 722.70 L 285.60 724.90 L 286.20 726.90 L 287.20 728.70 L 288.80 730.50 L 295.60 734.80 L 320.70 747.20 L 329.10 740.50 L 323.50 736.80 L 319.20 733.50 L 316.10 730.60 L 314.00 727.90 L 312.60 725.50 L 310.30 718.70 L 309.50 715.10 L 308.40 704.20 L 308.50 694.50 L 309.00 687.60 L 314.20 638.80 L 319.50 593.90 L 324.90 552.80 Z" fill="#ffae9c" fill-rule="evenodd" node-id="221" stroke="none" target-height="229.90002" target-width="45" target-x="284.1" target-y="517.3"></path><path d="M 286.60 717.20 L 285.10 722.90 L 284.30 728.00 L 284.10 732.40 L 285.00 741.80 L 285.30 751.30 L 291.60 751.30 L 291.60 736.40 L 296.70 743.80 L 300.20 748.10 L 302.60 750.40 L 304.20 751.30 L 340.80 751.30 L 341.00 750.30 L 340.60 748.00 L 339.90 746.60 L 338.40 744.90 L 336.40 743.30 L 326.60 738.30 L 320.50 734.60 L 321.40 736.00 L 321.50 736.80 L 321.10 737.40 L 319.90 737.90 L 317.20 738.10 L 313.90 737.80 L 310.50 736.90 L 307.20 735.50 L 304.20 733.50 L 302.40 731.90 L 300.90 730.00 L 298.20 725.50 L 296.20 723.20 L 293.70 721.10 L 290.50 719.10 L 286.60 717.20 Z" fill="#000000" fill-rule="evenodd" node-id="223" stroke="none" target-height="34.099976" target-width="56.899994" target-x="284.1" target-y="717.2"></path><path d="M 280.90 552.80 L 280.90 519.00 L 242.80 519.00 L 246.60 557.50 L 244.30 563.00 L 242.40 568.60 L 241.20 574.30 L 240.40 580.10 L 240.10 585.90 L 242.80 620.60 L 244.50 664.60 L 245.00 685.60 L 245.00 703.00 L 244.40 714.50 L 242.70 717.60 L 241.80 720.30 L 241.50 722.70 L 241.60 724.90 L 242.20 726.90 L 243.20 728.70 L 244.80 730.50 L 251.60 734.80 L 276.70 747.20 L 285.10 740.50 L 279.50 736.80 L 275.20 733.50 L 272.10 730.60 L 270.00 727.90 L 268.60 725.50 L 266.30 718.70 L 265.50 715.10 L 264.40 704.20 L 264.50 694.50 L 265.00 687.60 L 270.20 638.80 L 275.50 593.90 L 280.90 552.80 Z" fill="#ffae9c" fill-rule="evenodd" node-id="225" stroke="none" target-height="228.20001" target-width="45" target-x="240.1" target-y="519"></path><path d="M 242.60 717.20 L 241.10 722.90 L 240.30 728.00 L 240.10 732.40 L 241.00 741.80 L 241.30 751.30 L 247.60 751.30 L 247.60 736.40 L 252.70 743.80 L 256.20 748.10 L 258.60 750.40 L 260.20 751.30 L 296.80 751.30 L 297.30 749.60 L 297.10 748.30 L 296.50 746.90 L 295.00 745.20 L 292.90 743.50 L 281.50 737.80 L 277.70 735.50 L 276.20 734.20 L 277.20 736.20 L 277.50 737.50 L 277.30 738.40 L 276.60 739.10 L 275.40 739.60 L 273.30 739.80 L 270.10 739.50 L 266.80 738.70 L 264.80 737.80 L 260.70 735.00 L 258.90 733.10 L 257.20 730.80 L 254.00 725.00 L 252.10 722.60 L 250.10 720.60 L 247.80 719.10 L 245.30 718.00 L 242.60 717.20 Z" fill="#000000" fill-rule="evenodd" node-id="227" stroke="none" target-height="34.099976" target-width="57.19998" target-x="240.1" target-y="717.2"></path><path d="M 244.50 418.10 L 241.60 422.40 L 239.10 426.90 L 237.20 431.70 L 235.90 436.90 L 235.00 442.50 L 234.80 448.60 L 235.20 455.10 L 237.60 470.60 L 238.70 480.80 L 239.60 493.40 L 240.10 508.60 L 240.30 526.70 L 239.90 548.10 L 328.90 548.10 L 331.50 537.30 L 333.60 527.00 L 335.10 517.20 L 336.20 507.80 L 336.70 498.80 L 336.80 490.10 L 336.50 481.90 L 335.20 468.20 L 333.60 456.20 L 331.70 444.80 L 326.50 418.60 L 325.40 411.80 L 325.00 406.70 L 252.00 406.70 L 244.50 418.10 Z" fill="#004de6" fill-rule="evenodd" node-id="229" stroke="none" target-height="141.39996" target-width="101.999985" target-x="234.8" target-y="406.7"></path><path d="M 300.80 229.50 L 300.20 225.80 L 299.20 222.30 L 297.70 219.10 L 295.70 216.00 L 293.30 213.20 L 290.30 210.40 L 286.70 207.90 L 284.50 206.80 L 281.90 206.00 L 278.90 205.70 L 272.60 206.10 L 269.20 206.90 L 262.50 209.50 L 259.20 211.40 L 253.20 215.90 L 250.50 218.60 L 248.20 221.60 L 246.30 224.80 L 244.80 228.30 L 243.70 232.00 L 243.30 236.00 L 243.40 240.20 L 244.20 244.60 L 245.50 248.60 L 247.20 252.20 L 249.30 255.50 L 252.00 258.50 L 255.20 261.30 L 259.00 263.80 L 263.40 266.10 L 268.60 268.10 L 274.70 269.70 L 281.60 271.00 L 300.80 229.50 Z" fill="#7d1c1c" fill-rule="evenodd" node-id="231" stroke="none" target-height="65.3" target-width="57.499985" target-x="243.3" target-y="205.7"></path><path d="M 226.50 245.40 L 228.10 249.00 L 230.40 252.60 L 232.50 254.30 L 234.60 255.50 L 236.70 256.10 L 238.90 256.30 L 241.00 256.10 L 243.10 255.40 L 245.20 254.20 L 247.40 252.30 L 249.40 256.20 L 251.80 259.40 L 254.60 262.30 L 257.90 264.70 L 261.60 266.70 L 265.90 268.30 L 270.90 269.40" fill="none" node-id="233" stroke="#7d1c1c" stroke-linecap="butt" stroke-width="1.21" target-height="24" target-width="44.399994" target-x="226.5" target-y="245.4"></path><path d="M 247.00 225.10 L 244.50 223.60 L 242.10 222.80 L 239.50 222.50 L 236.90 222.70 L 234.00 223.60 L 230.80 225.30 L 229.20 226.60 L 227.80 228.20 L 226.00 232.20 L 225.10 236.90 L 225.20 240.60 L 225.80 244.20 L 227.00 247.60 L 228.60 250.50 L 231.60 253.40 L 233.30 254.30 L 236.50 255.20 L 239.30 255.50 L 241.80 255.30 L 244.10 254.60 L 246.20 253.30 L 248.20 251.60 L 247.00 225.10 Z" fill="#7d1c1c" fill-rule="evenodd" node-id="235" stroke="none" target-height="33" target-width="23.09999" target-x="225.1" target-y="222.5"></path><g node-id="269"><path d="M 270.60 253.90 L 268.50 251.60 L 267.20 249.10 L 267.00 247.70 L 267.20 246.40 L 267.90 245.30 L 269.00 244.40 L 270.10 244.00 L 271.20 244.20 L 272.50 244.80 L 274.00 246.20 L 279.20 243.60 L 283.60 240.90 L 287.10 238.20 L 289.90 235.50 L 292.10 232.70 L 293.70 229.90 L 294.80 227.00 L 295.50 224.00 L 295.60 220.90 L 297.00 221.90 L 298.50 223.90 L 300.10 227.10 L 301.70 232.00 L 303.20 239.10 L 308.30 244.40 L 310.40 247.00 L 309.10 248.50 L 306.50 250.50 L 307.10 261.40 L 306.90 263.40 L 305.50 266.30 L 303.50 268.00 L 301.20 269.00 L 298.60 269.70 L 295.40 270.00 L 291.70 269.80 L 294.20 285.70 L 267.90 285.70 L 270.60 253.90 Z" fill="#ffae9c" fill-rule="nonzero" group-id="4" node-id="239" stroke="none" target-height="64.80002" target-width="43.399994" target-x="267" target-y="220.9"></path><path d="M 291.70 269.80 L 284.40 267.10 L 285.00 270.60 L 286.00 273.90 L 287.50 277.00 L 289.30 280.00 L 291.60 282.80 L 294.40 285.50 L 291.70 269.80 Z" fill="#f99b86" fill-rule="evenodd" group-id="4" node-id="241" stroke="none" target-height="18.399994" target-width="10" target-x="284.4" target-y="267.1"></path><path d="M 298.70 239.80 L 297.50 240.20 L 296.50 239.70 L 296.10 238.60 L 296.60 237.50 L 297.70 237.10 L 298.80 237.60 L 299.20 238.70 L 298.70 239.80 Z" fill="#000000" fill-rule="nonzero" group-id="4" node-id="243" stroke="none" target-height="3.0999908" target-width="3.100006" target-x="296.1" target-y="237.1"></path><path d="M 306.80 255.30 L 300.70 255.70 L 302.20 257.30 L 303.80 258.30 L 305.40 258.70 L 307.00 258.70 L 306.80 255.30 Z" fill="#ffffff" fill-rule="evenodd" group-id="4" node-id="245" stroke="none" target-height="3.4000092" target-width="6.299988" target-x="300.7" target-y="255.3"></path><path d="M 298.80 233.10 L 296.40 233.80 L 294.40 235.00 L 292.70 236.70" fill="none" group-id="4" node-id="247" stroke="#000000" stroke-linecap="butt" stroke-width="1.21" target-height="3.5999908" target-width="6.0999756" target-x="292.7" target-y="233.1"></path></g><path d="M 246.50 224.60 L 245.10 229.20 L 244.30 233.50 L 243.90 237.60 L 244.10 241.50 L 244.70 245.20 L 245.80 248.80 L 247.40 252.30" fill="none" node-id="250" stroke="#ffffff" stroke-linecap="butt" stroke-width="1.21" target-height="27.699997" target-width="3.5" target-x="243.9" target-y="224.6"></path><path d="M 295.60 220.90 L 296.10 223.90 L 296.00 226.80 L 295.40 229.50 L 294.40 232.00 L 292.80 234.50 L 290.70 236.90 L 287.80 239.20 L 284.20 241.50 L 279.60 243.70 L 274.00 245.80" fill="none" node-id="252" stroke="#7d1c1c" stroke-linecap="butt" stroke-width="1.21" target-height="24.90001" target-width="22.100006" target-x="274" target-y="220.9"></path><g node-id="270"><path d="M 391.30 275.20 L 415.20 279.30 L 413.50 299.40 L 411.70 315.10 L 409.70 327.10 L 407.70 336.00 L 405.80 342.40 L 403.80 346.80 L 402.00 349.70 L 400.30 351.50 L 398.70 352.40 L 397.00 352.70 L 392.40 352.40 L 384.70 351.30 L 372.90 349.10 L 355.70 345.20 L 331.70 339.10 L 333.30 342.20 L 334.30 345.30 L 334.80 348.50 L 334.60 352.00 L 333.90 355.60 L 332.40 359.60 L 330.10 363.90 L 325.80 370.20 L 325.00 372.70 L 324.40 376.40 L 324.20 381.70 L 324.60 388.90 L 325.80 398.50 L 328.00 411.10 L 331.50 427.30 L 260.00 427.50 L 260.00 410.90 L 250.20 427.50 L 238.10 427.30 L 230.30 416.20 L 224.60 407.00 L 220.50 399.60 L 217.70 393.70 L 216.00 389.00 L 215.20 385.30 L 215.10 382.40 L 215.40 380.10 L 218.10 372.20 L 229.30 344.40 L 242.80 313.70 L 248.40 302.00 L 252.20 295.40 L 254.80 292.40 L 257.60 290.00 L 260.50 288.10 L 263.50 286.70 L 266.80 285.70 L 288.60 285.10 L 295.30 285.70 L 299.80 287.40 L 305.40 290.10 L 309.40 290.20 L 314.50 290.90 L 320.70 292.50 L 328.20 295.00 L 337.50 298.70 L 348.50 303.90 L 361.70 310.70 L 381.70 320.20 L 391.30 275.20 Z M 244.50 383.60 L 248.80 397.50 L 251.50 387.90 L 252.90 381.20 L 253.50 376.60 L 253.50 372.10 L 253.10 367.60 L 252.10 363.10 L 244.50 383.60 Z" fill="#ffffff" fill-rule="nonzero" group-id="5" node-id="256" stroke="none" target-height="152.29999" target-width="200.1" target-x="215.1" target-y="275.2"></path><path d="M 266.80 285.70 L 263.00 286.90 L 259.60 288.50 L 256.70 290.40 L 254.10 292.80 L 251.80 295.60 L 249.90 298.80 L 248.20 302.60 L 247.00 306.90 L 246.10 312.00 L 245.60 317.80 L 245.70 324.50 L 246.30 332.20 L 248.70 348.90 L 252.80 368.70 L 253.40 376.10 L 253.10 380.00 L 251.10 389.90 L 243.80 412.70 L 240.10 422.70 L 237.60 428.50 L 235.90 431.40 L 210.60 385.30 L 214.80 376.10 L 242.60 304.20 L 259.60 282.00 L 266.80 285.70 Z" fill="#d6dff3" fill-rule="evenodd" group-id="5" node-id="258" stroke="none" target-height="149.4" target-width="56.19998" target-x="210.6" target-y="282"></path><path d="M 306.60 288.00 L 257.40 288.90 L 269.80 282.00 L 294.70 283.50 L 306.60 288.00 Z" fill="#d6dff3" fill-rule="evenodd" group-id="5" node-id="260" stroke="none" target-height="6.899994" target-width="49.200012" target-x="257.4" target-y="282"></path><path d="M 382.30 315.80 L 380.20 331.60 L 363.70 310.90 L 382.30 315.80 Z" fill="#d6dff3" fill-rule="evenodd" group-id="5" node-id="262" stroke="none" target-height="20.700012" target-width="18.599976" target-x="363.7" target-y="310.9"></path><path d="M 334.80 340.00 L 318.00 335.80 L 324.30 339.90 L 328.70 343.40 L 331.70 346.40 L 333.60 349.00 L 334.50 351.20 L 334.80 353.30 L 336.30 350.50 L 336.80 348.20 L 336.80 346.30 L 334.80 340.00 Z" fill="#d6dff3" fill-rule="evenodd" group-id="5" node-id="264" stroke="none" target-height="17.5" target-width="18.799988" target-x="318" target-y="335.8"></path></g></svg>